<?xml version="1.0" encoding="utf-8"?>
<!DOCTYPE svg PUBLIC "-//W3C//DTD SVG 1.1//EN" "http://www.w3.org/Graphics/SVG/1.1/DTD/svg11.dtd">
<svg version="1.1" id="Layer_1" xmlns="http://www.w3.org/2000/svg" xmlns:xlink="http://www.w3.org/1999/xlink" x="0px" y="0px"
	 viewBox="-19.5644 -24.9925 1041.1288 1329.985" enable-background="new -19.5644 -24.9925 1041.1288 1329.985"
	 xml:space="preserve">
<g>
	<path fill="#4B2524" stroke="#4B2524" stroke-width="0.394" d="M69.63,0h7.2c4.6,3.49,7.5,8.61,11.39,12.79
		c12.73,16.05,30.09,27.84,48.41,36.66C171.57,65.86,210.68,71.4,249,71.12c24.63,0.15,49.12-3.1,73.42-6.84
		c58.55-9.5,116.53-22.56,175.5-29.33c7.56-0.82,15.11-1.99,22.73-2.07c7.08,1.83,14.55,1.7,21.66,0.07
		c42.54,1.77,83.21,15.62,123.9,26.92c21.24,6.01,42.73,11.41,64.62,14.49c12.18,1.94,24.48,2.89,36.76,3.94
		c2.64,1.15,5.49,1.68,8.3799,1.49c10.0601-0.31,20.13,0.02,30.19-0.13c-1.15-0.41-2.3-0.81-3.44-1.18
		c20.48-1.26,40.9901-3.95,60.6-10.22c27.67-8.53,53.76-24.21,71.55-47.38c2.46-3.49,4.48-7.39,7.77-10.22
		c3.29-3.01,9.12-2.8,11.98,0.71c1.93,2.47,4.06,4.89,5.36,7.78c1.2,7.1-3.46,14.11-1.27,21.16c1.18,4.49,3.13,8.92,2.73,13.66
		c-1.26,37.41-5.98,75.02-17.71,110.7c-6.15,18.64-14.32,36.66-24.82,53.27c-3.14,5.12-6.7,9.96-9.95,15.01
		c-11.34,18.4-19.26,39.01-22.27,60.46c-4.28,29.43,0.44,59.44,9.23,87.62c1.73,5.76,5.33,10.67,7.98,16.01
		c2.96,5.4,5,11.34,8.84,16.23c9.29,12.41,15.61,26.74,20.79,41.26c6.12,17.47,10.53,35.48,14.1899,53.61
		c1.6801,7.78,2.5601,15.74,4.6,23.45c0.31,4.04,0.53,8.19,2.21,11.95c19.83,41.22,31.2599,86.03,37.77,131.17
		c6.87,48.7599,7.75,98.29,3.55,147.33c-3.69,40.6-11.03,80.93-22.9,119.96c-10.15,32.63-23.36,64.47-41.3,93.62
		c-16.96,27.71-38.32,53.11-64.62,72.39c-13.7,10.11-28.98,18.63-45.7401,22.28c-9.55,1.71-20.07,2.0499-28.8-2.79
		c-4.7-2.4399-7.83-6.84-11.36-10.61c-0.81,0.62-1.62,1.25-2.42,1.9c-5.47,4.45-11.04,8.7799-16.61,13.11
		c0.95,7.21,1.66,14.47,1.84,21.75c-1.49,8.78-1.47,17.89-0.02,26.6899c-0.97,18.24-2.19,37.2201-10.78,53.73
		c-4.32,8.26-10.69,15.75-19.05,20.0901c-10.27,5.48-23.09,5.25-33.5,0.26c-8.47-3.8201-15.23-10.51-20.61-17.9601
		c-5.04,14.24-12.43,28.63-25.36,37.2001c-4.86,3.2899-10.49,5.22-16.21,6.34H630.53c-13.85-1.4-25.73-10.67-32.8-22.3199
		c-4.79,5.58-9.93,11.1599-16.71,14.3199c-9.59,4.9301-21.64,4.4399-30.82-1.2c-11.5-6.8501-18.45-19.64-20.22-32.67
		c-1.17-7.47-0.42-15.0699,1.04-22.4301c-17.07,0.4801-34.2,0.9301-51.23-0.6499c0.35,8.2-0.41,16.5699-3.43,24.26
		c-3.6,9.49-10.42,18-19.6,22.5599c-9.25,4.74-20.8,4.38-29.82-0.72c-6.13-3.2101-10.93-8.3301-15.22-13.64
		c-3.75,5.21-7.67,10.45-12.95,14.24c-9.5,7.3101-22.51,10.3-34.06,6.54c-12.19-3.77-21.48-13.5901-27.61-24.4401
		c-3.25-5.58-5.59-11.61-7.8-17.65c-5.68,8.01-13.09,15.0701-22.3,18.79c-10.56,4.54-23.26,4.14-33.21-1.77
		c-11.84-6.83-19.01-19.4399-22.86-32.1799c-4.07-12.9301-4.47-26.5601-5.63-39.9501c-0.99-15.7799-0.25-31.64,1.61-47.33
		c0.05-1.87,0.73-4.29-1.18-5.47c-6.33-5.51-12.56-11.12-18.53-17.02c-0.99-0.9-2.04-1.74-3.07-2.5701
		c-2.45,5.4301-4.39,11.39-8.91,15.53c-6.15,6.23-15.23,8.51-23.77,8.3101c-13.31-0.4301-26.03-5.28-37.74-11.3101
		c-24.22-13.73-45.06-32.85-62.47-54.46c-18.35-23.1901-33.08-49.1-44.81-76.21c-12.87-29.83-22.38-61.05-29.17-92.8
		C7.61,842.54,3.18,796.23,3.57,750.02c0.23-41.98,4.37-84.01,13.38-125.04c8.05-36.16,19.71-71.79,37.66-104.32
		c6-11.31,13.22-21.92,21.02-32.05c2.11-2.53,2.69-5.82,3.03-8.99c2.03-4.63,2.97-9.63,4.56-14.41c2.43-8.58,6.21-16.69,8.81-25.21
		c6.08-18.46,14.24-36.2,23.86-53.07c11.65-21.79,20.48-45.5,22.56-70.28c0.32,0.34,0.96,1.01,1.29,1.35
		c0.4-6.64,0.4-13.3-0.02-19.94c-0.33,0.33-0.99,0.98-1.32,1.3c-1.79-20.15-9.09-39.4-18.72-57.05c-2.56-4.31-6.4-7.64-9.4-11.63
		c-23.39-28.62-37.48-63.78-45.22-99.66c-6.24-29.24-9.04-59.17-9.32-89.04c2.29-11.95,7.21-23.3,9.13-35.35
		C65.19,3.72,67.48,1.7,69.63,0 M89.42,38.71c2.18,9.29,3.75,18.89,7.83,27.6c2.73-4.8,4.55-10.04,6.71-15.11
		C98.97,47.21,94.37,42.75,89.42,38.71 M72.39,48.01c-1.03,8.99-0.13,18.03,0.61,27c2.99,38.73,10.49,77.86,28.24,112.73
		c15.59,31.59,41,57.84,71.05,76c12.48,8.01,25.84,14.51,39.27,20.74c17.64,7.54,35.23,15.23,53.28,21.77
		c23.79,9.38,47.59,18.89,70.39,30.49c21.94,11.17,42.75,24.61,61.66,40.38c7.99,6.99,15.43,14.57,22.81,22.18
		c11.82,13.46,22.56,27.87,31.7,43.29c16.67,28.03,28.47,58.74,36.87,90.18c7.92,35.15,12.6,70.91,19.36,106.27
		c2.16-4.59,2.22-9.72,2.8-14.65c3.6-26.08,6.75-52.22,10.59-78.26c5.52-30.39,15.25-60.09,29.61-87.47
		c18.59-35,46.51-64.81,79.73-86.34c15.26-9.86,31.16-18.79,47.77-26.2c33.53-15.77,68.64-27.8,102.75-42.21
		c33.62-14.21,66.83-31.22,93.6-56.47c16.03-15.4,29.6-33.38,39.87-53.1c17.71-34.45,26.01-72.94,29.51-111.29
		c0.6-9.04,2.4-18.02,1.69-27.12c-2.58,3.76-3.55,8.25-5.24,12.41c-4.48,9.87-9.85,19.31-15.51,28.54
		c-7.41,9.49-14.77,19.09-23.53,27.4c-10.95,11.18-23.32,20.81-35.87,30.09c-30.96,21.74-65.21,38.23-99.88,53.11
		c-8.9,3.33-17.67,7.02-26.48,10.59c-8.93,4.02-18.32,6.86-27.34,10.66c-20.46,7.53-40.9,15.11-61.39,22.56
		c-7.61,2.99-15.43,5.44-22.81,8.98c-14.41,4.84-28.37,10.92-42.36,16.87c-8.24,3.77-16.27,7.97-24.55,11.64
		c-19.46,10.49-38.65,22.77-52.49,40.34c-2.5,3.53-8.3,4.38-11.32,1.09c-3.87-4.13-7.3-8.68-11.47-12.52
		c-16.98-16.22-37.85-27.48-58.45-38.34c-8.47-2.79-15.96-7.7-24.17-11.08c-12.14-5.24-24.13-10.87-36.55-15.44
		c-18.46-7.61-36.98-15.1-55.56-22.42c-11.17-5.05-22.68-9.28-33.96-14.07c-32.94-14.05-65.58-29.1-96.16-47.85
		c-32.64-19.77-63.23-44.15-85.49-75.45C85.39,79.17,77.75,63.99,72.39,48.01 M538.78,54.11c4.83,3.06,10.3199,4.85,15.79,6.36
		c11.03,2.65,23.13,3.95,33.94-0.25c-7.26-2.5-14.96-3.26-22.53-4.31C556.95,55.02,547.89,53.67,538.78,54.11 M500.03,55.9
		c-5.97,0.72-11.99,1.08-17.91,2.13c-2.04,0.31-3.48,1.88-4.99,3.12c-10.98,9.9-25.14,15.41-39.38,18.64
		c-9.7,2.24-19.74,1.01-29.47-0.32c-1.59,8.15-3.62,16.26-3.94,24.59c-1.28,27.26,8.74,55.11,27.98,74.61
		c10.91,10.57,24.75,18.57,39.88,20.97c7.16,1.09,14.57,1.98,21.7,0.2c23.38-5.55,43.35-22.35,53.97-43.76
		c-5.02-10.88-8.93-22.32-10.69-34.2c-2.68-16.49-1.5-33.41,2.59-49.57c-7.11-3.25-14.1-6.88-20.21-11.82
		c-2.53-1.83-4.68-4.35-7.66-5.46C507.92,54.71,503.97,55.55,500.03,55.9 M117.39,60.1c-3.22,7.21-6.1,14.63-7.9,22.33
		c-0.57,1.8-0.17,3.67,1.03,5.11c21.04,28.38,49.58,50.13,79.53,68.38c12.72,7.47,25.49,14.94,38.93,21.03
		c7.54-6.12,14.2-13.43,19.2-21.78c1.31-1.86,0.27-4.12-0.23-6.07c-3.81-11.65-6.14-23.83-6.27-36.11
		c-0.2-7.01,0.51-13.99,0.39-20.99c-7.47-0.76-14.98-0.81-22.45-1.54c-31.04-2.85-61.93-10.24-89.94-24.16
		C125.58,64.24,121.8,61.5,117.39,60.1 M909.2,71.15c-17.34,10.53-36.73,17.16-56.3,22.13c0.92,5.35,3.48,10.21,5.85,15.04
		c3.85,7.3,8.33,14.42,14.34,20.15c23-18.12,42.27-41.57,53.6299-68.71C920.74,63.35,915.28,67.72,909.2,71.15 M608.76,69.73
		c-8.11,4.1-16.97,6.48-25.84,8.26c-9.21,1.81-18.56,0.13-27.75-0.89c-0.99,3.21-1.86,6.47-2.34,9.81
		c-4.97,30.65,4.47,63.68,26.01,86.24c12.9,13.26,30.56,22.21,49.18,23.04c12.27,1.14,24.14-3.64,34.62-9.57
		c16.86-9.52,29.48-25.39,37.13-42.99c0.71-1.36,0.84-2.91-0.13-4.18c-10.24-17.19-15.96-37.12-16.07-57.16
		c-21.19-6.17-42.84-10.6-64.32-15.63C615.36,65.2,612.03,68.12,608.76,69.73 M379.2,76.16c-25.67,4.71-51.34,9.6-77.28,12.63
		c-7.68,0.85-15.38,2.15-23.14,1.68c-6.78-0.34-13.59-0.76-20.36-0.05c-0.59,6.51-1.01,13.05-1.2,19.58
		c0.49,28.39,11.22,57.81,33.5,76.28c14.32,11.99,33.47,18.25,52.1,16.44c24.3-4.17,45.97-20.81,56.65-42.95
		c-0.5-3.42-2.41-6.43-3.53-9.66c-6.77-17.98-9.05-37.67-6.45-56.71c0.68-6.25,2.76-12.23,3.61-18.45
		C388.47,73.66,383.78,75.45,379.2,76.16 M699.91,88.98c0.19,9.07,2.59,17.97,5.65,26.45c7.24,19.12,20.3,36.55,38.24,46.77
		c11.19,6.63,24.3,9.74,37.25,9.75c8.62-0.51,16.97-3.41,24.7-7.15c15.75-7.38,28.04-20.91,35.8-36.31
		c1.62-3.33,3.78-6.6,4.22-10.35c-0.68-2.42-2.02-4.57-3.1-6.81c-2.45-4.75-4.04-9.86-5.9-14.85
		C791.21,103.37,744.65,99.11,699.91,88.98 M856.49,134.11c-1.93,3.77-4,7.46-6.24,11.06c3.69-1.85,7.27-4.01,10.07-7.1
		C859.03,136.75,857.76,135.43,856.49,134.11 M711.41,156.2c-5.25,10.03-11.6299,19.54-19.64,27.58
		c-13.72,14.07-31.64,24.11-50.98,27.85c-10.33,1.63-20.62-0.55-30.84-1.8c-2.02,12.99-0.82,26.25,1.34,39.15
		c10.47-3.58,20.71-7.82,31.13-11.55c31.82-11.88,63.88-23.13,95.44-35.68c1.63-0.66,1.32-2.88,1.66-4.3
		c0.35-6.17,1.06-12.31,1.75-18.45c-5-3.07-10.27-5.73-14.86-9.42C720.87,165.73,716.43,160.64,711.41,156.2 M244.8,184.76
		c13.53,6.49,27.19,12.79,41.2,18.18c-5.76-4.88-11.82-9.48-16.54-15.43c-4.76-5.16-8.33-11.22-12.37-16.92
		C253.15,175.45,248.66,179.83,244.8,184.76 M557.19,171.97c-5.7,8.22-11.99,16.1-19.59,22.65c-12.95,10.91-28.62,18.81-45.38,21.64
		c-10.36,1.55-20.66-0.96-30.88-2.3c-0.68,8.67-0.82,17.4-0.17,26.07c1.71,18.06,7.64,35.86,18.02,50.81
		c2.73,3.92,6.91,6.39,10.45,9.48c4.37,3.56,8.03,7.89,12.26,11.6c16.42-17.82,37.72-29.99,59.1-40.88
		c11.35-5.58,23.05-10.45,34.61-15.54c0.83-2.16-0.02-4.55-0.25-6.76c-2.67-14.74-2.94-29.87-0.78-44.7
		c-2.58-1.67-5.24-3.2-7.94-4.66C574.9,192.58,565.46,182.58,557.19,171.97 M399.19,188.17c-14.12,15.84-33.59,26.9-54.57,30.36
		c-7.24,1.1-14.5-0.29-21.74-0.41c37.92,15.92,76.68,30.01,113.46,48.55c5.65,2.65,10.87,6.13,16.64,8.54
		c-0.73-2.63-1.54-5.24-2.39-7.83c-6.08-19.15-6.94-39.58-4.32-59.41c-4.16-2.62-8.6-4.79-12.63-7.63
		c-9.68-6.65-17.48-15.52-24.65-24.72C405.61,179.72,402.81,184.27,399.19,188.17 M756.38,184.94c-0.4,3.09-0.72,6.19-0.94,9.3
		c5.71-1.83,11.14-4.38,16.58-6.85C766.77,186.82,761.62,185.59,756.38,184.94 M149.94,267.97c5.71,18.39,7.62,37.9,5.23,57.03
		c-3.49,27.68-14.37,53.93-28.15,78.01c-11.82,22.15-20.94,45.87-25.68,70.57c-4.94,25.44-4.95,51.92,0.81,77.23
		c4.45,19.79,12.42,38.75,23.15,55.95c39.69,63.12,114.6,102.05,189.02,98.91c-8.1,1.35-16.32,0.15-24.47,0.77
		c6.69,0.68,13.43,0.03,20.14,0.3c3.07-0.17,6.58,0.61,9.18-1.47c10.36-1.01,20.67-2.66,30.72-5.42
		c30.11-8.0099,57.52-25.63,77.32-49.68c23.59-28.38,36.81-64.04,43.17-100.06c0.96-6.17,2.38-12.52,1.17-18.75
		c-8.34-29.39-19.73-58.08-35.75-84.17c-18.29-30.05-43.2-55.99-72.39-75.62c-41.11-28.06-88.7-43.87-134.42-62.54
		C201.47,297.82,174.28,285.2,149.94,267.97 M810.05,308.09c-40.47,19.41-83.51,32.8-124.19,51.75
		c-28.39,12.94-55.71,29.02-78.58,50.44c-14.84,13.71-27.36,29.8-37.91,47.01c-4.04,3.27-5.66,8.44-8.16,12.82
		c-2.53,5.61-6.48,10.85-6.82,17.2c-4.49,11.5-8.73,23.13-11.76,35.1c-1.67,13.78,0.84,27.59,3.92,41.01
		c4.64,20.57,11.66,40.7,21.84,59.22c15.02,27.74,37.93,51.51,66.23,65.76c34.42,17.62,74.86,21.0699,112.51,13.77
		c52.22-10.1,100.83-39.54,132.79-82.22c18.97-25.32,31.53-55.53,35.26-87c0.42-4.17,1.28-8.37,0.73-12.56
		c0.8-6.88,0.85-13.92-0.1-20.78c0.14-1.21,0.18-2.42,0.13-3.62c-2.6-33.19-13.72-65.27-29.5-94.42c-2.31-4.4-5.24-8.53-6.66-13.34
		c-6.07-19.47-10.7401-39.55-11.71-59.98c1.87-3.81,0.67-8.19,0.98-12.25c-0.29-3.39,0.92-7.23-1.07-10.25
		c0.37-12.44,2.83-24.71,5.93-36.73C854.32,284.61,832.77,297.62,810.05,308.09 M932.42,537.81c-2.71,16.51-6.58,32.93-13.29,48.31
		c-1.1,2.72-2.63,5.59-1.88,8.62c1.6,7.39,4.39,14.49,7.64,21.31c4.68,9.21,10.16,18.37,18.01,25.25c0.22-7.6-0.89-15.14-1.42-22.7
		c-1.42-19.24-3.55-38.41-5.62-57.58C934.71,553.29,934.24,545.37,932.42,537.81 M87.54,565.84c-1.66,32.69-2.96,65.41-2.67,98.15
		c0.11,4.14-0.1,8.35,0.81,12.41c0.96,0.8199,2.16,1.28,3.36,1.64c21.17,4.68,44.63-0.55,61.06-14.9
		c-24.68-22.44-44.93-50.14-56.84-81.42C91.13,576.5,89.79,571,87.54,565.84 M532.33,579.81c-4.33,29.58-7.26,59.38-12.68,88.8
		c-1.16,5.07-2,10.54-5.23,14.78c-2.91,3.82-9.24,4.17-12.53,0.68c-2.16-2.25-2.91-5.39-3.65-8.31c-2.08-9.5-3.86-19.05-5.4-28.65
		c-3.8-22.06-7.5-44.15-11.27-66.22c-3.77,11.54-7.33,23.2-12.47,34.23c-0.96,2.29-2.41,4.55-2.31,7.13
		c-0.34-0.3-1.01-0.89-1.35-1.18c-2.35,7.47-6.11,14.29-10.44,20.77c-7.87,11.92-16.64,23.31-26.92,33.25
		c-12.87,12.24-27.42,22.85-43.54,30.3799c-2.63,1.13-5.19,2.4301-7.58,4.01c7.4,2.81,15.17,4.7,23.09,5.23
		c13.25,1.3,26.24-3.58,37.63-9.93c11.12-6.25,19.49-16.1,26.9-26.26c6.01,3.1,6.24,10.7,8.16,16.4c-2.87,2.06-4.88,5-7.21,7.61
		c-13.32,14.31-31.52,23.72-50.65,27.3799c-9.12,1.7401-18.36,0.19-27.49-0.61c-5.61,23.39-3.74,48.53,5.51,70.75
		c6.06,14.39,15.41,27.71,28.19,36.88c13.25,9.87,30.09,14.46,46.51,13.57c21.73-2.88,41.96-15.67,53.63-34.26
		c2.1-3.6,4.74-7.08,5.61-11.22c-1.29-5.03-3.86-9.64-5.16-14.68c-4.76-14.9301-6.17-30.67-5.77-46.27l-0.83,0.17
		c2.89-3.51,6.32-6.61,8.63-10.56c1.6-2.71,3.18-5.44,4.94-8.05c3.2599-4.65,4.5-10.37,8.13-14.8c7.28,1.62,14.89,2.45,22.33,1.37
		c16.28-2.98,31.7-11.05,42.91-23.29c-3.37-3.3199-7.34-5.92-10.78-9.15c-11.35-10.41-21.71-22.03-29.92-35.1
		c-0.9-1.43-2.11-2.61-3.31-3.75c-2.97-4.43-5.23-9.28-8.05-13.8c-2.51-3.97-2.4901-8.8-3.88-13.16
		c-3.07-8.83-7.44-17.21-9.68-26.32c-0.56-2.04-1.01-4.27-2.83-5.59l0.22,1.09C533.37,581.98,532.84,580.89,532.33,579.81
		 M888.47,637.47c-10.9,13.35-23.28,25.51-36.92,36.05c-4.12,3.28-8.71,5.95-12.64,9.47c12.7401,2.54,25.6801-1.55,37.05-7.1
		c15.95-8.05,28.49-22.07,35.53-38.42c1.11-3.02,3.49-6.45,1.67-9.65c-2.53-4.93-4.75-10-7.11-15
		C900.32,621.12,895.02,629.76,888.47,637.47 M925.17,646c-3.21,5.75-6.21,11.66-10.24,16.91c-13.48,18.79-34.66,31.48-57.28,35.75
		c-10.09,1.89-20.4301,0.5-30.41-1.37c-0.97,16.25,0.82,32.76,6.26,48.14c7.02,20.28,20.59,39.2,40.17,48.87
		c14.19,6.9,30.82,9.27,46.26,5.63c5.37-1.23,10.93-2.38,15.71-5.27c3.25-1.96,2.97-6.29,3.65-9.56c3.46-29.6,4.41-59.41,5.27-89.18
		c0.16-9.66,0.53-19.33,0.25-28.98c0.33-3.06-2.73-4.44-4.63-6.17C934.52,656.54,930.01,651.09,925.17,646 M151.15,682.09
		c-9.69,5.9-20.4,10.17-31.55,12.33c-5.32,1.07-10.8,0.37-16.14,1.15c-1.42,0.93-1.97,2.67-2.76,4.11
		c-6.45,14.17-9.88,29.74-9.84,45.32c-0.23,21.97,5.25,44.34,17.36,62.83c9.18,14.19,22.84,25.84,39.21,30.72
		c11.28,3.28,23.63,4.61,35.01,0.99c15.24-4.44,29.09-13.74,38.65-26.46c2.53-3.52,5.53-6.9,6.94-11.06
		c-0.89-5.13-3.02-9.96-3.97-15.08c-5.3-23.74-3.93-49.04,4.58-71.87c-6.53-2.92-13.22-5.57-19.16-9.61
		c-6.13-3.76-10.97-9.34-17.46-12.55c-10.28-5.5-19.74-12.37-29.2-19.15C158.77,676.31,155.26,679.62,151.15,682.09 M615.29,697.99
		c-13.88,15.52-32.98,26.15-53.47,29.77c-9.15,1.46-18.36,0.05-27.5-0.71c-5.42,25.67-2.42,53.38,9.92,76.67
		c8.15,15.77,21.17,29.34,37.6,36.4301c11.53,4.84,24.34,7.17,36.8,5.39c15.56-3.18,30.57-10.66,41.27-22.59
		c8.57-8.87,14.58-19.95,18.41-31.61c1.09-2.5-0.71-4.82-1.7-7.01c-10.55-20.4-14.1-43.77-13.17-66.54
		c-5.95-1.74-11.95-3.32-17.75-5.49C635.08,708.6,625.18,703.24,615.29,697.99 M716.01,723.14c-6.02,0.06-12,1.03-18.02,0.84
		c-6.3-0.03-12.5-1.31-18.74-1.99c-0.86,19.73,3.24,39.81,12.46,57.33c6.31,11.73,14.89,22.5,26.05,29.93
		c13.45,9.28,30.21,13.63,46.47,12.1c15.67-2.56,30.61-10,41.81-21.3c8.58-8.71,14.9901-19.44,19.02-30.95
		c0.93-2.3199-0.72-4.5099-1.54-6.5699c-9.67-19.63-12.86-41.82-12.36-63.53C781.48,713.25,749.05,722.41,716.01,723.14
		 M695.65,706.17c4.2599,1.59,8.91,0.76,13.35,0.99c5.08-0.2,10.29,0.44,15.26-0.96C714.72,706.2,705.18,706.07,695.65,706.17
		 M352.22,717.22c-22.47,6.1-46.1,7.23-69.21,4.98c-7.71-0.62-15.28-2.61-23.05-2.58c-5.29-0.04-10.57-0.65-15.86-0.7
		c-9.07,22.72-9.46,48.44-2.79,71.85c4.77,15.94,12.98,31.19,25.29,42.58c14.26,13.71,34.52,20.75,54.2,19.26
		c24.62-3.38,46.97-19.82,57.55-42.3c0.99-1.72,0.22-3.62-0.41-5.29c-8.55-20.55-11.27-43.4-8.46-65.44
		c0.6-5.1,2.02-10.06,2.46-15.18c-4.89-2.09-9.53-4.65-14.17-7.22C356.05,716.07,354.02,716.83,352.22,717.22 M836.23,783.85
		c-5.86,11.9-13.58,23.03-23.68,31.71c-11.74,10.31-26.26,17.23-41.46,20.61c-11.63,2.54-23.6201,0.88-35.15-1.32
		c-3.7,25.07,1.64,51.58,15.01,73.17c10.27,16.61,26.76,29.64,45.95,34.08c9.64,2.06,19.86,3.06,29.47,0.29
		c9.52-2.51,18.58-6.76,26.61-12.48c11.32-8.56,20.33-20.15,25.65-33.33c1.2-3.48,4-7.33,1.9-11
		c-11.1201-23.6-14.67-50.29-11.9901-76.13c-4.3-2.34-8.66-4.57-12.67-7.37C848.38,797.08,842.44,790.27,836.23,783.85
		 M678.47,825.46c-14.08,19.39-36.2599,32.32-59.8199,36.1c-10.19,1.24-20.45-0.35-30.4301-2.36c-2.81,22.35,0.71,45.61,10.91,65.76
		c6.6,12.67,15.92,24.16,27.98,31.98c12.43,8.3,27.59,12.1,42.45,11.59c11.05-1.08,21.63-5.26,31.11-10.92
		c16.19-10.01,27.84-26.44,33.43-44.49c0.69-1.81-0.44-3.52-1.17-5.08c-7.61-14.07-11.72-29.82-13.37-45.66
		c-1.32-11.1-0.21-22.22,0.65-33.29c-5.48-3.22-11.14-6.2-16.06-10.26c-5.21-3.86-9.44-8.8-14.14-13.22
		C686.59,812.46,683.22,819.39,678.47,825.46 M918.26,816.34c-11.32,2.18-22.9,0.75-34.13-1.28c-2.26,19.77,1.1,40.05,8.35,58.51
		c3.93,8.99,8.33,18.07,14.98,25.38c3.92-9.6,6.79-19.57,10.02-29.41c5.72-18.65,11.74-37.28,15.68-56.4
		C928.16,814.06,923.25,815.39,918.26,816.34 M221.59,835.63c-12.07,10.63-27.01,17.97-42.78,21.08c-10.96,1.93-22.04,0-32.86-1.8
		c-3.34,23.6201,1.17,48.46,12.84,69.31c9.19,16.71,24.35,30.39,42.62,36.34c12.51,3.88,26.39,5.18,38.93,0.75
		c14.4-4.5,27.61-13.11,36.89-25.08c2.45-3.29,5.32-6.45,6.69-10.37c-0.34-4.06-2.17-7.79-3.08-11.72
		c-4.8-17.51-5.1-35.93-2.9-53.85c-8.05-4.39-15.89-9.29-22.54-15.66c-7.81-7.1-13.6-15.97-19.31-24.74
		C231.36,825.22,227.14,831.07,221.59,835.63 M536.38,822.03c-5.28,8.27-11.34,16.15-18.84,22.53
		c-11.96,10.46-26.78,17.43-42.26,20.76c-11.39,2.3-23.01,0.45-34.31-1.43c-1.54,7.62-1.17,15.45-0.87,23.17
		c1.85,25.45,12.06,51.22,31.58,68.26c14.11,12.58,33.45,18.9,52.27,17.49c25.28-3.61,48.37-20.79,58.32-44.42
		c0.46-1.61-0.51-3.18-0.96-4.66c-6.05-14.05-9.01-29.31-9.75-44.55c-0.44-8.61,0.61-17.18,1.24-25.74
		c-6.92-3.54-13.56-7.66-19.42-12.78C546.83,835.28,541.8,828.46,536.38,822.03 M388.3,825.22c-5.52,8.59-12.06,16.6201-20.06,23.04
		c-12.29,10.35-27.51,16.87-43.24,19.81c-10.6,1.65-21.29-0.28-31.75-2.02c-2.03,15.47-0.73,31.28,3.42,46.3
		c5.49,18.98,15.97,37.08,32.13,48.89c13.65,10.34,31.2,15.08,48.21,13.67c24.58-3.54,46.69-20.16,57.15-42.64
		c0.98-3.16-1.56-6.15-2.33-9.12c-7.67-20.6801-9.55-43.27-6.29-65.04c-4.95-2.85-10.07-5.48-14.59-9
		C401.91,842.69,394.79,834.1,388.3,825.22 M105.17,830.02c6.45,27.55,14.69,54.74,24.93,81.12c1.31-1.97,3.14-3.83,3.42-6.27
		c-0.07-2.09-0.7-4.11-1.16-6.13c-3.93-16.23-4.11-33.16-1.78-49.64c-3.59-2.36-7.42-4.35-10.96-6.79
		C114.35,838.77,109.89,834.23,105.17,830.02 M878.36,927.4c-13.34,16.42-32.8,27.37-53.43,31.56c-9.26,1.96-18.75,0.57-28.02-0.54
		c-3.04,29.97,6.1201,61.21,25.59,84.33c4.41-4.42,7.85-9.65,11.73-14.51c10.7-14.46,20.95-29.26,30.59-44.44
		c10.55-16.02,19.64-32.98,27.48-50.47c2.51-6.03,6.06-11.76,7.49-18.15c-2.11-3.49-5.02-6.4-7.74-9.4
		C888.11,913.36,883.89,920.84,878.36,927.4 M136.59,927.98c13.79,33.2,31.43,64.8,52.3,94.06c1.29,1.98,2.95,3.7,4.89,5.08
		c-0.64-6.53-2.75-12.8-3.45-19.32c-1.8-11.46-1.38-23.07-0.41-34.58c-8.18-3.79-16.14-8.24-22.92-14.24
		c-11.34-9.48-19.78-21.92-26.3-35.08C139.29,925.21,137.92,926.57,136.59,927.98 M745.37,928c-4.03,9.2-9.19,17.96-15.86,25.51
		c-13.05,15.4-31.65,25.57-51.29,29.75c-10.0099,2.2-20.23,0.5-30.28-0.38c-2.92,28,4.59,57.66,22.68,79.54
		c12.18,14.63,30.1,24.5299,49.19,25.98c14.9,1.84,29.69-3.6801,42.14-11.48c15.9-10.12,27.07-26.65,32.46-44.53
		c0.64-1.74,0.14-3.53-0.62-5.11c-7.81-15.97-12.16-33.59-13.05-51.33c-0.68-7.51,0.36-15.02,0.07-22.53
		c-9.34-3.69-17.89-9.15-25.41-15.78C751.82,934.66,749.03,930.88,745.37,928 M230.82,979.65c-8.52,0.93-17.03-0.44-25.47-1.44
		c-1.89,21.94,1.87,44.63,12.33,64.14c7.38,13.88,18.41,26.12,32.41,33.5c12.11,6.6,26.23,9.26,39.93,8.05
		c22.03-3.47,42.36-17.0601,53.41-36.52c1.1-1.74,0.1-3.73-0.32-5.49c-2.77-8.27-4.58-16.84-5.64-25.48
		c-1.45-10.7-0.59-21.48-0.33-32.21c-13.04-5.79-24.83-14.41-33.88-25.47c-4.36-4.8-7.43-10.52-11.18-15.75
		C277.62,962.76,255.02,976.14,230.82,979.65 M580.14,960.12c-12.24,13.32-28.64,22.53-46.16,26.88
		c-10.98,3.21-22.52,1.42-33.66,0.14c-2.1,23.66,2.48,48.24,14.88,68.67c9.8,16.47,25.61,29.6399,44.23,34.74
		c11.43,2.8999,23.82,3.99,35.14,0.0499c18.01-5.33,33.86-17.4299,43.44-33.62c1.62-3.14,4.1-6.21,4.4-9.7999
		c-1.78-5.64-4.5-10.9701-5.87-16.76c-4.42-15.3701-5.8-31.52-4.46-47.4401c-0.12-2.14,1.07-5.5-1.72-6.33
		c-10.81-4.77-20.45-11.95-28.55-20.52c-3.45-3.7-6.37-7.84-9.75-11.59C588.24,949.85,584.64,955.34,580.14,960.12 M419.83,973.8
		c-11.1,8.22-24.17,13.52-37.63,16.4c-9.64,1.8-19.5,0.51-29.09-0.94c-2.1,17.02,0.3,34.5,6,50.64
		c5.76,16.16,15.68,31.09,29.51,41.4299c13.79,10.2101,31.3,15.29,48.41,13.79c24.57-3.67,46.86-20.16,57.14-42.83
		c0.85-1.8301-0.41-3.7101-0.92-5.4301c-8.36-20.38-10.73-42.88-8.33-64.68c-5.29-2.63-10.69-5.12-15.5-8.58
		c-10.13-6.83-18.31-16-25.48-25.8C437.25,957.6,429.55,966.86,419.83,973.8 M800.75,1057.7c-3.07,6.0701-7.69,11.1101-11.3,16.8201
		c3.75-2.55,6.56-6.17,9.92-9.16c1.61-1.66,3.85-3.09,4.16-5.5699c0.79-4.1001,2-8.1001,2.59-12.2201
		C803.86,1050.6801,802.7,1054.41,800.75,1057.7 M336.55,1079.5601c-12.45,10.4399-27.83,17.12-43.76,20
		c-13.18,1.72-26.47-0.7401-39.09-4.4701c3.42,3.6901,7.38,6.8,11.29,9.9401c16.69,13.36,34.83,24.75,52.94,36.0499
		c14.22,8.3501,28.96,16.0801,44.49,21.66c-0.87-6.13-2.61-12.1-3.03-18.28c1.34-5.0599,0.32-10.2899,0.76-15.4199
		c0.25-3.1801,0.14-6.4-0.7-9.48c1.13-11.9301,4.46-23.5601,9.01-34.6101c-6.08-6.73-11.35-14.08-16.34-21.62
		C347.29,1069.0601,342.45,1074.87,336.55,1079.5601 M638.25,1082.25c-13.68,14.11-32.16,23.12-51.46,26.36
		c-20.42,1.9501-41.25-3.75-58.18-15.26c-2.31,7.5-4.31,15.3101-4.32,23.1901c-1.16,7.9099-1.13,16.0299,0.03,23.9399
		c0.54,13.4,4.93,26.48,10.71,38.51c2.21,4.02,3.7,8.78,7.28,11.84c32.57-4.1599,64.98-10.24,96.68-18.8999
		c9.87-3.01,19.89-5.9401,28.98-10.91c-5.08-9.34-9.02-19.3301-11.25-29.73c-3.61-19.25-2.2-39.2101,2.07-58.23
		c-2.15-2.9501-4.38-5.8401-6.71-8.64C647.97,1070.73,643.64,1076.95,638.25,1082.25 M473.94,1097.9301
		c-9.96,6.5-21.45,9.9299-32.84,12.97c-6.27,0.2899-12.54-0.0601-18.8-0.09c-9.23-1.2201-18.36-3.4401-26.87-7.26
		c-5-2.1101-9.44-5.25-14.28-7.64c-2.52,7.0499-4.88,14.33-5.36,21.85c-2.67,12.79-1.35,26.1799,1.58,38.83
		c0.99,4.3101,1.49,8.78,3.13,12.9301c0.47,1.47,2.03,2.02,3.2,2.84c4.91,2.89,10.44,4.5,15.88,6.1
		c21.65,5.74,43.95,8.86,66.26,10.55c7.25,1.36,14.7,1.49,22.05,1.9399c7.27,0.7301,14.62,0.7101,21.92,0.62
		c1.96,0.13,2.53-2.0499,3.48-3.3199c1.56-2.99,3.53-5.9,4.2401-9.23c-3.71-9.71-6.9-19.71-8.33-30.05
		c-3.6-22.39-1.05-45.5,6.29-66.89c-4.18-4.45-7.76-9.38-11.51-14.1699C496.09,1079.76,486.28,1090.59,473.94,1097.9301
		 M776.18,1086.22c-6.76,5.27-14.38,9.38-22.33,12.55c-9.5099,3.5599-19.56,6.4299-29.8199,5.6799
		c-18.71-0.3099-36.97-7.13-51.8-18.4199c-1.77,11.23-2.25,22.6599-1.3,34c1.14,11.52,5.13,22.61,10.53,32.7999
		c12.02-5.2999,23.21-12.2799,34.58-18.8099c17.31-10.62,34.44-21.8101,49.44-35.5801c5.02-5.0099,10.71-9.4199,15.06-15.0399
		C778.99,1084.1801,777.55,1085.15,776.18,1086.22 M255.08,1126.61c-1.85,15.36-2.17,30.91-1.19,46.35
		c0.99,11.8,1.49,23.78,4.97,35.1801c1.87,6.79,5.2,13.0499,8.91,19.01l-0.83-0.61c1.03,4.5299,5.23,7.1899,8.75,9.76
		c7.64,4.86,18.18,7.1799,26.46,2.62c-0.58-0.02-1.74-0.05-2.31-0.0701c11.09-3.7,20.26-12.14,25.39-22.5699
		c1.19-1.9501,0.1-4.1901-0.27-6.1901c-3.64-13.7-6.09-27.6899-7.34-41.7999c-15.76-8.89-31.19-18.4-45.74-29.1801
		C266.11,1135.17,261.02,1130.29,255.08,1126.61 M741.77,1146.6801c-2.81,1.0199-5.23,2.8099-7.71,4.4199
		c-13.47,8.6-27.5,16.3101-41.86,23.3201c-1.37,10.09-2.11,20.2799-4.3,30.24c-1.14,6.77-3.41,13.3099-4.48,20.08
		c5.47,13.15,18.09,24.3201,32.78,25.03c8.11,0.51,16.09-3.12,21.72-8.85c6.32-6.41,10.25-14.76,12.7-23.3301
		c2.91-9.77,3.55-20,4.55-30.09c0.72-11.1899,1.41-22.48,0.28-33.66c-0.03-5.35-0.57-10.6899-1-16.02
		C749.97,1140.38,745.64,1143.25,741.77,1146.6801 M251.94,1155c0.31,5.75-0.78,11.66,0.79,17.29c0.5-5.4301-0.16-10.86-0.06-16.29
		c-0.05-5.1,0.58-10.2,0.09-15.28C251.12,1145.29,252.16,1150.25,251.94,1155 M326.69,1172.99c1.24,14.8201,4.82,29.3201,8.62,43.67
		c2.03,7.7799,5.03,15.2799,8.57,22.51l-0.87-0.5901c0.69,4.0901,3.51,7.29,5.78,10.62c2.42,3.5901,6.12,5.9701,9.58,8.4501
		c7.42,5.4399,17.54,7.1,26.23,3.95c2.33-0.98,5.58-1.39,6.42-4.1699l-1.11,0.3899c7.41-4.84,13.52-11.6799,16.99-19.85
		c1.83-4.61,4.02-9.4299,3.74-14.47c1.4-6.34,1.03-12.9,0.14-19.27c-0.69-0.08-2.08-0.24-2.78-0.3199
		c-7.63-2.42-15.42-4.27-23.02-6.8101C364.95,1190.62,345.44,1182.55,326.69,1172.99 M600.21,1206.3101
		c-6.03,20.2-1.97,44.58,14.67,58.6699l-0.86-0.52c0.31,0.5901,0.94,1.76,1.25,2.3401c6.74,5.5699,16.05,7.5,24.58,6.0699
		c4.58-1.28,8.85-3.58,12.77-6.24c9.07-6.65,14.56-16.92,18.92-27.03c6.02-17.71,10.42-36.01,12.63-54.6
		c0.25-1.84-0.04-3.6899-1.01-5.25l0.11-1C656.56,1190.6,628.78,1200.12,600.21,1206.3101 M419.87,1206.71
		c0.38,9.2101,0.35,18.64-2.64,27.48c-0.34,1.8701-1.83,4.1001-0.33,5.8301c5.28,8.16,13.27,15.58,23.33,16.66
		c4.08,0.2899,8.68,0.0299,12.11-2.41c4.84-1.64,8.54-5.42,11.53-9.41c6.33-8.7,8.44-19.91,7.13-30.47
		c-6.26-0.22-12.41-1.61-18.67-1.63c-0.79-0.86-2.23-0.61-3.26-0.91C439.25,1210.63,429.59,1208.47,419.87,1206.71
		 M543.44,1214.6801c-1.35,0.3099-3.64-0.17-3.87,1.7599c-3.6,14.0801-1.86,30.6001,8.31,41.65
		c5.91,6.7101,15.53,10.64,24.37,8.1801c7.89-1.97,14.16-7.75,18.85-14.15c0.91-1.48,2.48-3.04,1.6801-4.89
		c-1.35-4.7999-2.45-9.65-3.45-14.52c-0.12-5.59-0.17-11.1699-0.1-16.75c0.9-2.48,1.33-5.09,1.73-7.6799
		C575.24,1211.1899,559.4,1213.58,543.44,1214.6801z"/>
	<path fill="#2B0F0D" stroke="#2B0F0D" stroke-width="0.394" d="M520.65,32.88c7.21-0.31,14.45-0.41,21.66,0.07
		C535.2,34.58,527.73,34.71,520.65,32.88z"/>
	<path fill="#6F4A3B" stroke="#6F4A3B" stroke-width="0.394" d="M89.42,38.71c4.95,4.04,9.55,8.5,14.54,12.49
		c-2.16,5.07-3.98,10.31-6.71,15.11C93.17,57.6,91.6,48,89.42,38.71z"/>
	<path fill="#343B8C" stroke="#343B8C" stroke-width="0.394" d="M72.39,48.01c5.36,15.98,13,31.16,22.58,45.03
		c22.26,31.3,52.85,55.68,85.49,75.45c30.58,18.75,63.22,33.8,96.16,47.85c11.28,4.79,22.79,9.02,33.96,14.07
		c18.58,7.32,37.1,14.81,55.56,22.42c12.42,4.57,24.41,10.2,36.55,15.44c8.21,3.38,15.7,8.29,24.17,11.08
		c20.6,10.86,41.47,22.12,58.45,38.34c4.17,3.84,7.6,8.39,11.47,12.52c3.02,3.29,8.82,2.44,11.32-1.09
		c13.84-17.57,33.03-29.85,52.49-40.34c8.28-3.67,16.31-7.87,24.55-11.64c13.99-5.95,27.95-12.03,42.36-16.87
		c7.38-3.54,15.2-5.99,22.81-8.98c20.49-7.45,40.93-15.03,61.39-22.56c9.02-3.8,18.41-6.64,27.34-10.66
		c8.81-3.57,17.58-7.26,26.48-10.59c34.67-14.88,68.92-31.37,99.88-53.11c12.55-9.28,24.92-18.91,35.87-30.09
		c8.76-8.31,16.12-17.91,23.53-27.4c5.66-9.23,11.03-18.67,15.51-28.54c1.69-4.16,2.66-8.65,5.24-12.41
		c0.71,9.1-1.09,18.08-1.69,27.12c-3.5,38.35-11.8,76.84-29.51,111.29c-10.27,19.72-23.84,37.7-39.87,53.1
		c-26.77,25.25-59.98,42.26-93.6,56.47c-34.11,14.41-69.22,26.44-102.75,42.21c-16.61,7.41-32.51,16.34-47.77,26.2
		c-33.22,21.53-61.14,51.34-79.73,86.34c-14.36,27.38-24.09,57.08-29.61,87.47c-3.84,26.04-6.99,52.18-10.59,78.26
		c-0.58,4.93-0.64,10.06-2.8,14.65c-6.76-35.36-11.44-71.12-19.36-106.27c-8.4-31.44-20.2-62.15-36.87-90.18
		c-9.14-15.42-19.88-29.83-31.7-43.29c-7.38-7.61-14.82-15.19-22.81-22.18c-18.91-15.77-39.72-29.21-61.66-40.38
		c-22.8-11.6-46.6-21.11-70.39-30.49c-18.05-6.54-35.64-14.23-53.28-21.77c-13.43-6.23-26.79-12.73-39.27-20.74
		c-30.05-18.16-55.46-44.41-71.05-76c-17.75-34.87-25.25-74-28.24-112.73C72.26,66.04,71.36,57,72.39,48.01z"/>
	<path fill="#6F4A3C" stroke="#6F4A3C" stroke-width="0.394" d="M538.78,54.11c9.11-0.44,18.17,0.91,27.2,1.8
		c7.57,1.05,15.27,1.81,22.53,4.31c-10.81,4.2-22.91,2.9-33.94,0.25C549.1,58.96,543.61,57.17,538.78,54.11z"/>
	<path fill="#6F4A3A" stroke="#6F4A3A" stroke-width="0.394" d="M500.03,55.9c3.94-0.35,7.89-1.19,11.87-0.87
		c2.98,1.11,5.13,3.63,7.66,5.46c6.11,4.94,13.1,8.57,20.21,11.82c-4.09,16.16-5.27,33.08-2.59,49.57
		c1.76,11.88,5.67,23.32,10.69,34.2c-10.62,21.41-30.59,38.21-53.97,43.76c-7.13,1.78-14.54,0.89-21.7-0.2
		c-15.13-2.4-28.97-10.4-39.88-20.97c-19.24-19.5-29.26-47.35-27.98-74.61c0.32-8.33,2.35-16.44,3.94-24.59
		c9.73,1.33,19.77,2.56,29.47,0.32c14.24-3.23,28.4-8.74,39.38-18.64c1.51-1.24,2.95-2.81,4.99-3.12
		C488.04,56.98,494.06,56.62,500.03,55.9z"/>
	<path fill="#6F4A3A" stroke="#6F4A3A" stroke-width="0.394" d="M117.39,60.1c4.41,1.4,8.19,4.14,12.29,6.2
		c28.01,13.92,58.9,21.31,89.94,24.16c7.47,0.73,14.98,0.78,22.45,1.54c0.12,7-0.59,13.98-0.39,20.99
		c0.13,12.28,2.46,24.46,6.27,36.11c0.5,1.95,1.54,4.21,0.23,6.07c-5,8.35-11.66,15.66-19.2,21.78
		c-13.44-6.09-26.21-13.56-38.93-21.03c-29.95-18.25-58.49-40-79.53-68.38c-1.2-1.44-1.6-3.31-1.03-5.11
		C111.29,74.73,114.17,67.31,117.39,60.1z"/>
	<path fill="#6F4A3A" stroke="#6F4A3A" stroke-width="0.394" d="M909.2,71.15c6.08-3.43,11.54-7.8,17.52-11.39
		C915.36,86.9,896.09,110.35,873.09,128.47c-6.01-5.73-10.4901-12.85-14.34-20.15c-2.37-4.83-4.93-9.69-5.85-15.04
		C872.47,88.31,891.86,81.68,909.2,71.15z"/>
	<path fill="#6F4A3A" stroke="#6F4A3A" stroke-width="0.394" d="M608.76,69.73c3.27-1.61,6.6-4.53,10.49-3.07
		c21.48,5.03,43.13,9.46,64.32,15.63c0.11,20.04,5.83,39.97,16.07,57.16c0.97,1.27,0.84,2.82,0.13,4.18
		c-7.65,17.6-20.27,33.47-37.13,42.99c-10.48,5.93-22.35,10.71-34.62,9.57c-18.62-0.83-36.28-9.78-49.18-23.04
		c-21.54-22.56-30.98-55.59-26.01-86.24c0.48-3.34,1.35-6.6,2.34-9.81c9.19,1.02,18.54,2.7,27.75,0.89
		C591.79,76.21,600.65,73.83,608.76,69.73z"/>
	<path fill="#6F4A3A" stroke="#6F4A3A" stroke-width="0.394" d="M379.2,76.16c4.58-0.71,9.27-2.5,13.9-1.21
		c-0.85,6.22-2.93,12.2-3.61,18.45c-2.6,19.04-0.32,38.73,6.45,56.71c1.12,3.23,3.03,6.24,3.53,9.66
		c-10.68,22.14-32.35,38.78-56.65,42.95c-18.63,1.81-37.78-4.45-52.1-16.44c-22.28-18.47-33.01-47.89-33.5-76.28
		c0.19-6.53,0.61-13.07,1.2-19.58c6.77-0.71,13.58-0.29,20.36,0.05c7.76,0.47,15.46-0.83,23.14-1.68
		C327.86,85.76,353.53,80.87,379.2,76.16z"/>
	<path fill="#060201" stroke="#060201" stroke-width="0.394" d="M767.59,78.3c11.7,0.62,23.43,0.65,35.1299,0.18
		c1.14,0.37,2.29,0.77,3.44,1.18c-10.06,0.15-20.1299-0.18-30.19,0.13C773.08,79.98,770.23,79.45,767.59,78.3z"/>
	<path fill="#6F4A3A" stroke="#6F4A3A" stroke-width="0.394" d="M699.91,88.98c44.7401,10.13,91.3,14.39,136.86,7.5
		c1.86,4.99,3.45,10.1,5.9,14.85c1.08,2.24,2.42,4.39,3.1,6.81c-0.44,3.75-2.6,7.02-4.22,10.35c-7.76,15.4-20.05,28.93-35.8,36.31
		c-7.73,3.74-16.08,6.64-24.7,7.15c-12.95-0.01-26.06-3.12-37.25-9.75c-17.94-10.22-31-27.65-38.24-46.77
		C702.5,106.95,700.1,98.05,699.91,88.98z"/>
	<path fill="#6F4A41" stroke="#6F4A41" stroke-width="0.394" d="M856.49,134.11c1.27,1.32,2.54,2.64,3.83,3.96
		c-2.8,3.09-6.38,5.25-10.07,7.1C852.49,141.57,854.56,137.88,856.49,134.11z"/>
	<path fill="#6F4A3A" stroke="#6F4A3A" stroke-width="0.394" d="M711.41,156.2c5.02,4.44,9.46,9.53,15,13.38
		c4.59,3.69,9.86,6.35,14.86,9.42c-0.69,6.14-1.4,12.28-1.75,18.45c-0.34,1.42-0.03,3.64-1.66,4.3
		c-31.56,12.55-63.62,23.8-95.44,35.68c-10.42,3.73-20.66,7.97-31.13,11.55c-2.16-12.9-3.36-26.16-1.34-39.15
		c10.22,1.25,20.51,3.43,30.84,1.8c19.34-3.74,37.26-13.78,50.98-27.85C699.78,175.74,706.16,166.23,711.41,156.2z"/>
	<path fill="#6F4A3B" stroke="#6F4A3B" stroke-width="0.394" d="M244.8,184.76c3.86-4.93,8.35-9.31,12.29-14.17
		c4.04,5.7,7.61,11.76,12.37,16.92c4.72,5.95,10.78,10.55,16.54,15.43C271.99,197.55,258.33,191.25,244.8,184.76z"/>
	<path fill="#6F4A3A" stroke="#6F4A3A" stroke-width="0.394" d="M557.19,171.97c8.27,10.61,17.71,20.61,29.45,27.41
		c2.7,1.46,5.36,2.99,7.94,4.66c-2.16,14.83-1.89,29.96,0.78,44.7c0.23,2.21,1.08,4.6,0.25,6.76c-11.56,5.09-23.26,9.96-34.61,15.54
		c-21.38,10.89-42.68,23.06-59.1,40.88c-4.23-3.71-7.89-8.04-12.26-11.6c-3.54-3.09-7.72-5.56-10.45-9.48
		c-10.38-14.95-16.31-32.75-18.02-50.81c-0.65-8.67-0.51-17.4,0.17-26.07c10.22,1.34,20.52,3.85,30.88,2.3
		c16.76-2.83,32.43-10.73,45.38-21.64C545.2,188.07,551.49,180.19,557.19,171.97z"/>
	<path fill="#6F4A3A" stroke="#6F4A3A" stroke-width="0.394" d="M399.19,188.17c3.62-3.9,6.42-8.45,9.8-12.55
		c7.17,9.2,14.97,18.07,24.65,24.72c4.03,2.84,8.47,5.01,12.63,7.63c-2.62,19.83-1.76,40.26,4.32,59.41
		c0.85,2.59,1.66,5.2,2.39,7.83c-5.77-2.41-10.99-5.89-16.64-8.54c-36.78-18.54-75.54-32.63-113.46-48.55
		c7.24,0.12,14.5,1.51,21.74,0.41C365.6,215.07,385.07,204.01,399.19,188.17z"/>
	<path fill="#6F4A3D" stroke="#6F4A3D" stroke-width="0.394" d="M756.38,184.94c5.24,0.65,10.39,1.88,15.64,2.45
		c-5.44,2.47-10.87,5.02-16.58,6.85C755.66,191.13,755.98,188.03,756.38,184.94z"/>
	<path fill="#92D3E7" stroke="#92D3E7" stroke-width="0.394" d="M149.94,267.97c24.34,17.23,51.53,29.85,79.05,41.06
		c45.72,18.67,93.31,34.48,134.42,62.54c29.19,19.63,54.1,45.57,72.39,75.62c16.02,26.09,27.41,54.78,35.75,84.17
		c1.21,6.23-0.21,12.58-1.17,18.75c-6.36,36.02-19.58,71.68-43.17,100.06c-19.8,24.05-47.21,41.67-77.32,49.68
		c-10.05,2.76-20.36,4.41-30.72,5.42c-1.62,0.14-3.23,0.26-4.85,0.4c-74.42,3.14-149.33-35.79-189.02-98.91
		c-10.73-17.2-18.7-36.16-23.15-55.95c-5.76-25.31-5.75-51.79-0.81-77.23c4.74-24.7,13.86-48.42,25.68-70.57
		c13.78-24.08,24.66-50.33,28.15-78.01C157.56,305.87,155.65,286.36,149.94,267.97 M288.38,397.43c-22.35,1.28-44.36,8.53-63,20.95
		c-23.45,15.4-41.61,38.66-50.8,65.18c-8.58,24.7-9.43,52.04-2.36,77.23c8.5,30.54,28.77,57.61,55.71,74.35
		c30.9,19.57,70.33,24.81,105.29,14.08c31.03-9.2,58.1-30.75,74.23-58.78c17.48-29.85,21.92-66.88,12.31-100.07
		c-8.58-30.29-28.8-57.03-55.52-73.65C341.79,402.57,314.86,395.78,288.38,397.43 M285.76,655.44c6.76,0.96,13.71,0.99,20.47-0.01
		C299.42,654.95,292.57,654.98,285.76,655.44z"/>
	<path fill="#83CEE5" stroke="#83CEE5" stroke-width="0.394" d="M810.05,308.09c22.72-10.47,44.27-23.48,63.86-39.07
		c-3.1,12.02-5.56,24.29-5.93,36.73c-0.47,7.49-0.44,15.01,0.09,22.5c0.97,20.43,5.64,40.51,11.71,59.98
		c1.42,4.81,4.35,8.94,6.66,13.34c15.78,29.15,26.9,61.23,29.5,94.42c0.05,1.2,0.01,2.41-0.13,3.62c-1.31,6.86-1.26,13.93,0.1,20.78
		c0.55,4.19-0.31,8.39-0.73,12.56c-3.73,31.47-16.29,61.68-35.26,87c-31.96,42.68-80.57,72.12-132.79,82.22
		c-37.65,7.3-78.09,3.85-112.51-13.77c-28.3-14.25-51.21-38.02-66.23-65.76c-10.18-18.52-17.2-38.65-21.84-59.22
		c-3.08-13.42-5.59-27.23-3.92-41.01c3.03-11.97,7.27-23.6,11.76-35.1c4.29-10.33,9.29-20.38,14.98-30.02
		c10.55-17.21,23.07-33.3,37.91-47.01c22.87-21.42,50.1899-37.5,78.58-50.44C726.54,340.89,769.58,327.5,810.05,308.09
		 M651.86,424.87c-26.73,18.5-45.73,47.53-52.37,79.32c-1.66,0.72-1.74,2.7-2.17,4.21c-1.32,6.64-2.5,13.41-1.99,20.21
		c0.4,5.59-0.39,11.33,1.28,16.77c0.26-1.86,0.57-3.71,0.59-5.58c1.93,27.21,12.8,53.69,30.61,74.35
		c21.96,25.89,54.53,42.39,88.4,44.71c-2.18,0.01-4.34,0.3-6.4901,0.57c5.95,2.2,12.28,0.9,18.4301,1.08
		c8.47,0.35,17.0699-0.59,25.14-3.24c-0.87-0.09-2.62-0.26-3.5-0.35c16.21-3.16,31.8-9.42,45.66-18.41
		c25.35-16.38,44.63-41.92,53.25-70.85c10.39-34.04,5.83-72.32-12.47-102.87c-16.2-27.49-42.95-48.57-73.55-57.67
		C725.61,395.75,683.48,402.36,651.86,424.87z"/>
	<path fill="#230707" stroke="#230707" stroke-width="0.394" d="M138.4,299.36c0.33-0.32,0.99-0.97,1.32-1.3
		c0.42,6.64,0.42,13.3,0.02,19.94c-0.33-0.34-0.97-1.01-1.29-1.35C138.83,310.9,138.81,305.12,138.4,299.36z"/>
	<path fill="#22171E" stroke="#22171E" stroke-width="0.394" d="M867.98,305.75c1.99,3.02,0.78,6.86,1.07,10.25
		c-0.31,4.06,0.89,8.44-0.98,12.25C867.54,320.76,867.51,313.24,867.98,305.75z"/>
	<path fill="#4A2524" stroke="#4A2524" stroke-width="0.394" d="M288.38,397.43c26.48-1.65,53.41,5.14,75.86,19.29
		c26.72,16.62,46.94,43.36,55.52,73.65c9.61,33.19,5.17,70.22-12.31,100.07c-16.13,28.03-43.2,49.58-74.23,58.78
		c-34.96,10.73-74.39,5.4901-105.29-14.08c-26.94-16.74-47.21-43.81-55.71-74.35c-7.07-25.19-6.22-52.53,2.36-77.23
		c9.19-26.52,27.35-49.78,50.8-65.18C244.02,405.96,266.03,398.71,288.38,397.43 M286.36,411.56c-3.45,0.48-6.89,0.97-10.34,1.41
		c-27.15,4.36-51.59,20.01-69.18,40.83c-2.23,2.85-3.98,6.03-6.12,8.95c-6.63,8.57-10.19,18.94-14.1,28.91
		c-8.83,28.23-6.3,59.95,7.46,86.19c6.05,12.28,14.73,23.06,24.31,32.76c7.39,6.1,15.07,11.95,23.55,16.48
		c13.02,7.02,27.47,11.29,42.16,12.94c9.62,1.79,19.44,0.9,29.02-0.6801c7.23-0.72,14.12-3.09,21.04-5.16
		c8.13-2.62,15.5-7.05,23.02-11c4.51-2.28,8.05-5.95,11.92-9.11c9.65-8.05,17.93-17.62,24.78-28.14
		c10.54-17.79,16.68-38.22,17.04-58.93c0.14-8.4-1.28-16.71-2.81-24.94c-1.66-10.15-6.07-19.57-10.28-28.86
		c-12.31-23.4-32.82-42.44-57.11-52.91c-9.16-3.63-18.57-7.02-28.47-7.8C303.7,411.03,294.98,410.24,286.36,411.56z"/>
	<path fill="#4A2524" stroke="#4A2524" stroke-width="0.394" d="M651.86,424.87c31.62-22.51,73.75-29.12,110.82-17.75
		c30.6,9.1,57.35,30.18,73.55,57.67c18.3,30.55,22.86,68.83,12.47,102.87c-8.62,28.9301-27.9,54.47-53.25,70.85
		c-13.86,8.99-29.45,15.25-45.66,18.41c-11.06,2.05-22.35,2.6-33.58,1.94c-33.87-2.32-66.44-18.82-88.4-44.71
		c-17.81-20.66-28.68-47.14-30.61-74.35c-0.78-11.91-0.03-23.9,2.29-35.61C606.13,472.4,625.13,443.37,651.86,424.87 M660.33,436.29
		c-9.06,5.73-16.41,13.6-23.45,21.58c-14.77,18.1-23.95,40.76-25.83,64.05c-0.97,14.38,0.81,29,5.2,42.73
		c4.89,16.5699,14.47,31.41,25.77,44.33c22.98,24.14,56.65,38.15,90.03,36.15c17-1.21,33.88-5.85,48.69-14.36
		c8.51-4.44,16-10.55,23.26-16.77c2.96-3.14,7.19-5.88,7.76-10.5c3.09-3.76,5.95-7.72,8.72-11.72c1.69-0.66,3.02-1.88,3.86-3.4901
		c7.33-12.03,11.98-25.62,14.37-39.47c0.81-8.21,2.34-16.5,1.25-24.75c-0.76-6.42-0.95-12.93-2.63-19.2
		c-2.14-11.02-7.33-21.06-11.99-31.16c-8.58-14.25-19.91-26.87-33.3701-36.67c-14.86-10.37-31.96-17.74-50-20.11
		C713.6,412.47,683.72,419.7,660.33,436.29z"/>
	<path fill="#43280B" stroke="#43280B" stroke-width="0.394" d="M286.36,411.56c8.62-1.32,17.34-0.53,25.89,0.94
		c9.9,0.78,19.31,4.17,28.47,7.8c24.29,10.47,44.8,29.51,57.11,52.91c4.21,9.29,8.62,18.71,10.28,28.86
		c1.53,8.23,2.95,16.54,2.81,24.94c-0.36,20.71-6.5,41.14-17.04,58.93c-6.85,10.52-15.13,20.09-24.78,28.14
		c-3.87,3.16-7.41,6.83-11.92,9.11c-7.52,3.95-14.89,8.38-23.02,11c-6.92,2.07-13.81,4.44-21.04,5.16
		c-9.58,1.58-19.4,2.47-29.02,0.6801c-14.69-1.65-29.14-5.92-42.16-12.94c-8.48-4.53-16.16-10.38-23.55-16.48
		c-9.58-9.7-18.26-20.48-24.31-32.76c-13.76-26.24-16.29-57.96-7.46-86.19c3.91-9.97,7.47-20.34,14.1-28.91
		c2.14-2.92,3.89-6.1,6.12-8.95c17.59-20.82,42.03-36.47,69.18-40.83C279.47,412.53,282.91,412.04,286.36,411.56 M280.03,414.07
		c-23.34,3.24-45.5,14.18-62.38,30.6c-2.91,2.87-5.99,5.68-8.01,9.29c-2.82,2.36-5.14,5.41-6.66,8.76
		c-3.21,3.56-5.7,7.79-7.26,12.33c-0.22,0.44-0.66,1.33-0.88,1.78c-2.56,3.52-3.83,7.73-5.33,11.76
		c-10.7,30.19-7.72,64.91,8.16,92.74c2.48,4.17,4.78,8.54,8.27,11.98c0.8,1.86,2.04,3.56,3.72,4.74c1.05,1.66,2.24,3.24,3.57,4.7
		c11.7,12.61,26.29,22.51,42.33,28.72c32.72,12.79,71.34,9.0601,100.88-10.0099c5.9-3.9901,12.16-7.88,16.65-13.5
		c0.21-0.21,0.63-0.63,0.84-0.84c3.84-2.58,6.94-6.16,9.36-10.07c4.55-4.4,8.18-9.93,10.73-15.71c1.92-2.32,3.27-5.04,4.5-7.77
		c8.97-19.37,12.39-41.32,9.49-62.48c-2.36-18.56-9.57-36.41-20.52-51.56c-1-1.37-2.2-2.58-3.49-3.67
		c-0.19-0.22-0.57-0.66-0.76-0.88c-1.57-3.39-4.25-6.12-7.27-8.25c-0.55-1.21-1.5-2.19-2.69-2.76c-3.1-3.78-6.95-6.92-11.22-9.26
		c-0.67-0.9-1.66-1.45-2.68-1.83c-2.6-2.62-5.88-4.38-9.1-6.1C329.09,415.03,303.99,410.59,280.03,414.07z"/>
	<path fill="#EDC741" stroke="#EDC741" stroke-width="0.394" d="M280.03,414.07c23.96-3.48,49.06,0.96,70.25,12.71
		c3.22,1.72,6.5,3.48,9.1,6.1c-5.77-1.87-10.63-5.6-16.11-8.08c-17.53-7.94-37.03-11.77-56.26-10.03
		c-23.11,1.71-45.4,11.22-63.09,26.11c-4.97,4.14-8.83,9.5-14.28,13.08c2.02-3.61,5.1-6.42,8.01-9.29
		C234.53,428.25,256.69,417.31,280.03,414.07z"/>
	<path fill="#FFD008" stroke="#FFD008" stroke-width="0.394" d="M287.01,414.77c19.23-1.74,38.73,2.09,56.26,10.03
		c5.48,2.48,10.34,6.21,16.11,8.08c1.02,0.38,2.01,0.93,2.68,1.83c2.87,4.01,6.73,7.2,11.22,9.26c1.19,0.57,2.14,1.55,2.69,2.76
		c1.41,3.53,4.02,6.31,7.27,8.25c0.19,0.22,0.57,0.66,0.76,0.88c1.28,2.69,2.64,5.36,4.36,7.81c9.89,13.72,15.42,30.14,18.1,46.71
		c3.11,21.73-0.45,44.4-10.05,64.14c-0.98,2.21-1.67,4.52-2.39,6.82c-2.55,5.78-6.18,11.31-10.73,15.71
		c-3.96,2.48-7.3,5.84-9.36,10.07c-0.21,0.21-0.63,0.63-0.84,0.84c-2.33,1.33-4.65,2.69-6.74,4.4
		c-27.57,23.16-67.02,31.13-101.46,20.7c-18.39-5.34-35.31-15.58-48.55-29.39c-2.01-2.12-4.31-3.93-6.68-5.62
		c-1.68-1.18-2.92-2.88-3.72-4.74c-2.27-6.11-6.48-11.17-9.3-16.98c-13.45-26.54-15.76-58.59-5.94-86.7
		c1.64-4.19,3.32-8.37,4.14-12.8c0.22-0.45,0.66-1.34,0.88-1.78c3.53-3.37,5.83-7.71,7.26-12.33c1.52-3.35,3.84-6.4,6.66-8.76
		c5.45-3.58,9.31-8.94,14.28-13.08C241.61,425.99,263.9,416.48,287.01,414.77 M270.21,482.12c-1.47,0.6-2.36,1.93-3.12,3.27
		c-8.52,5.52-15.41,13.52-19.56,22.79c-1.03,0.79-2.22,1.51-2.55,2.86c-2.81,7.62-2.59,15.93-2.22,23.93
		c0.28,6.78,3.03,13.15,6.26,19.02c7.33,13.63,21.57,22.93,36.73,25.36c10.97,2.41,22.33-0.65,32.29-5.3
		c3.37-1.81,7.69-3.42,8.7-7.56c1-0.82,1.95-1.69,2.84-2.63c3.04-0.14,4.65-2.87,6.21-5.09c4.2-6.37,7.77-13.36,8.95-20.98
		c2.12-9.59,0.64-19.7-2.73-28.81c-1.43-2.81-2.26-6.57-5.48-7.84c-0.58-1-1.2-1.97-1.87-2.9c-2.04-4.28-5.75-7.57-9.73-10.04
		c-0.28-0.19-0.83-0.59-1.11-0.79c-2.06-4.62-7.46-5.73-11.63-7.66c-7.29-3.2-15.4-3.22-23.21-2.95
		C282.4,476.98,276.04,479.18,270.21,482.12z"/>
	<path fill="#43280B" stroke="#43280B" stroke-width="0.394" d="M660.33,436.29c23.39-16.59,53.27-23.82,81.64-19.36
		c18.04,2.37,35.14,9.74,50,20.11c13.46,9.8,24.79,22.42,33.3701,36.67c4.66,10.1,9.85,20.14,11.99,31.16
		c1.68,6.27,1.87,12.78,2.63,19.2c1.09,8.25-0.44,16.54-1.25,24.75c-2.39,13.85-7.04,27.44-14.37,39.47
		c-0.84,1.61-2.17,2.83-3.86,3.4901c10.53-16.7,17-36.03,17.82-55.8101c1.57-29.99-9.29-60.69-30.2-82.37
		c-1.5-1.73-3.13-3.35-4.87-4.82c-2.27-2.07-4.56-4.12-6.89-6.12c-2.42-2.25-5.11-4.18-7.92-5.91
		c-31.57-22.13-74.94-25.35-109.8-9.15c-10.89,5.11-21.38,11.57-29.76,20.28c-0.24,0.23-0.72,0.68-0.96,0.91
		c-3.54,2.93-6.69,6.29-9.4301,9.97c-1.31,1.53-2.55,3.13-3.7,4.78c-26.64,34.58-29.52,85.55-7.05,122.96
		c2.17,4.23,4.77,8.25,7.88,11.87c5.3,6.95,11.47,13.19,18.04,18.94c3.32,3.07,7.01,5.72,10.91,8.02
		c37.84,25.53,91.74,23.83,127.87-4.09c1.72-1.2,3.4-2.48,4.97-3.89c3.35-2.89,6.51-6.0099,9.6-9.18c0.24-0.23,0.72-0.7,0.96-0.94
		c1.28-1.23,2.58-2.44,3.81-3.73c-0.57,4.62-4.8,7.36-7.76,10.5c-7.26,6.22-14.75,12.33-23.26,16.77
		c-14.81,8.51-31.69,13.15-48.69,14.36c-33.38,2-67.05-12.01-90.03-36.15c-11.3-12.92-20.88-27.76-25.77-44.33
		c-4.39-13.73-6.17-28.35-5.2-42.73c1.88-23.29,11.06-45.95,25.83-64.05C643.92,449.89,651.27,442.02,660.33,436.29z"/>
	<path fill="#EFCA40" stroke="#EFCA40" stroke-width="0.394" d="M678.62,427.6c34.86-16.2,78.23-12.98,109.8,9.15
		c-6.7-1.68-12.18-6.07-18.49-8.66c-14.38-6.4-30.2-9.39-45.93-8.99c-12.16-0.41-24.19,2.32-35.65,6.2
		c-8.55,2.81-16.55,7.08-24.11,11.92c-5.31,3.31-9.7,7.95-15.38,10.66C657.24,439.17,667.73,432.71,678.62,427.6z"/>
	<path fill="#FFD008" stroke="#FFD008" stroke-width="0.394" d="M688.35,425.3c11.46-3.88,23.4901-6.61,35.65-6.2
		c15.73-0.4,31.55,2.59,45.93,8.99c6.31,2.59,11.79,6.98,18.49,8.66c2.81,1.73,5.5,3.66,7.92,5.91c1.95,2.4,4.28,4.45,6.89,6.12
		c1.74,1.47,3.37,3.09,4.87,4.82c1.89,4.56,5.23,8.22,8.21,12.07c12.15,16.98,19.32,37.45,20.52,58.27
		c1.55,27.27-7.02,55.25-24.54,76.33c-1.73,2.13-3.05,4.55-4.34,6.96c-0.24,0.24-0.72,0.71-0.96,0.94c-3.61,2.6-6.76,5.76-9.6,9.18
		c-1.57,1.41-3.25,2.69-4.97,3.89c-5.56,1.64-10.11,5.3-15.15,8.01c-17.26,9.01-36.86,13.52-56.33,12.46
		c-12.96-0.01-25.61-3.51-37.67-7.9901c-6.46-2.34-12-6.72-18.72-8.39c-3.9-2.3-7.59-4.95-10.91-8.02
		c-5.9-6.42-12.11-12.55-18.04-18.94c-3.11-3.62-5.71-7.64-7.88-11.87c-0.74-2.83-1.55-5.65-2.83-8.28
		c-16.66-34.02-13.82-76.73,7.11-108.29c1.2-2,1.95-4.22,2.77-6.39c1.15-1.65,2.39-3.25,3.7-4.78c4.29-2.06,7.64-5.55,9.4301-9.97
		c0.24-0.23,0.72-0.68,0.96-0.91c5.68-2.71,10.07-7.35,15.38-10.66C671.8,432.38,679.8,428.11,688.35,425.3 M699.66,486.68
		c-3.46,2.06-8.15,3.5-9.3799,7.79c-3.23,2.96-6.1801,6.25-8.75,9.79c-1.08,0.32-1.96,0.89-2.65,1.7
		c-7.95,13.23-9.44,29.92-4.3,44.45c1.11,2.71,1.71,6.4301,4.95,7.39c1.15,1.96,2.42,3.87,3.81,5.68c0.2,1.6,0.59,3.24,1.87,4.36
		c7.07,7.2,15.83,13.14,25.85,15.2c15.23,3.64,32,0.07,44.31-9.64c1.32-0.9,1.87-2.42,2.35-3.86c2.47-2.41,4.75-5.0099,6.8-7.78
		c3.21-1.18,4.36-4.65,5.77-7.45c7.78-17.14,5.91-38.76-6.19-53.44c-8.09-10.07-19.7-17.69-32.67-19.35
		C720.63,480.04,709.31,481.42,699.66,486.68z"/>
	<path fill="#F0CA44" stroke="#F0CA44" stroke-width="0.394" d="M362.06,434.71c4.27,2.34,8.12,5.48,11.22,9.26
		C368.79,441.91,364.93,438.72,362.06,434.71z"/>
	<path fill="#FDFDFD" stroke="#FDFDFD" stroke-width="0.394" d="M796.34,442.66c2.33,2,4.62,4.05,6.89,6.12
		C800.62,447.11,798.29,445.06,796.34,442.66z"/>
	<path fill="#F6CE46" stroke="#F6CE46" stroke-width="0.394" d="M375.97,446.73c3.02,2.13,5.7,4.86,7.27,8.25
		C379.99,453.04,377.38,450.26,375.97,446.73z"/>
	<path fill="#F8CF42" stroke="#F8CF42" stroke-width="0.394" d="M638.47,458.76c2.7401-3.68,5.89-7.04,9.4301-9.97
		C646.11,453.21,642.76,456.7,638.47,458.76z"/>
	<path fill="#ECC640" stroke="#ECC640" stroke-width="0.394" d="M808.1,453.6c20.91,21.68,31.77,52.38,30.2,82.37
		c-0.82,19.78-7.29,39.11-17.82,55.8101c-2.77,4-5.63,7.96-8.72,11.72c-1.23,1.29-2.53,2.5-3.81,3.73c1.29-2.41,2.61-4.83,4.34-6.96
		c17.52-21.08,26.09-49.06,24.54-76.33c-1.2-20.82-8.37-41.29-20.52-58.27C813.33,461.82,809.99,458.16,808.1,453.6z"/>
	<path fill="#EDC740" stroke="#EDC740" stroke-width="0.394" d="M384,455.86c1.29,1.09,2.49,2.3,3.49,3.67
		c10.95,15.15,18.16,33,20.52,51.56c2.9,21.16-0.52,43.11-9.49,62.48c-1.23,2.73-2.58,5.45-4.5,7.77c0.72-2.3,1.41-4.61,2.39-6.82
		c9.6-19.74,13.16-42.41,10.05-64.14c-2.68-16.57-8.21-32.99-18.1-46.71C386.64,461.22,385.28,458.55,384,455.86z"/>
	<path fill="#060201" stroke="#060201" stroke-width="0.394" d="M561.21,470.11c2.5-4.38,4.12-9.55,8.16-12.82
		c-5.69,9.64-10.69,19.69-14.98,30.02C554.73,480.96,558.68,475.72,561.21,470.11z"/>
	<path fill="#ECC744" stroke="#ECC744" stroke-width="0.394" d="M195.72,475.05c1.56-4.54,4.05-8.77,7.26-12.33
		C201.55,467.34,199.25,471.68,195.72,475.05z"/>
	<path fill="#ECC63F" stroke="#ECC63F" stroke-width="0.394" d="M627.72,586.5c-22.47-37.41-19.59-88.38,7.05-122.96
		c-0.82,2.17-1.57,4.39-2.77,6.39c-20.93,31.56-23.77,74.27-7.11,108.29C626.17,580.85,626.98,583.67,627.72,586.5z"/>
	<path fill="#E9C33D" stroke="#E9C33D" stroke-width="0.394" d="M189.51,488.59c1.5-4.03,2.77-8.24,5.33-11.76
		c-0.82,4.43-2.5,8.61-4.14,12.8c-9.82,28.11-7.51,60.16,5.94,86.7c2.82,5.81,7.03,10.87,9.3,16.98c-3.49-3.44-5.79-7.81-8.27-11.98
		C181.79,553.5,178.81,518.78,189.51,488.59z"/>
	<path fill="#EBC43F" stroke="#EBC43F" stroke-width="0.394" d="M270.21,482.12c5.83-2.94,12.19-5.14,18.77-5.32
		c7.81-0.27,15.92-0.25,23.21,2.95c4.17,1.93,9.57,3.04,11.63,7.66c-8.28-5.4-17.78-9.28-27.77-9.51
		c-10.15-0.55-20.24,2.38-28.96,7.49C267.85,484.05,268.74,482.72,270.21,482.12z"/>
	<path fill="#43280B" stroke="#43280B" stroke-width="0.394" d="M267.09,485.39c8.72-5.11,18.81-8.04,28.96-7.49
		c9.99,0.23,19.49,4.11,27.77,9.51c0.28,0.2,0.83,0.6,1.11,0.79c3.61,2.96,6.93,6.3,9.73,10.04c0.67,0.93,1.29,1.9,1.87,2.9
		c6.54,10.99,9.27,24.28,6.65,36.88c-1.79,9.76-6.91,18.61-13.6,25.84c-0.89,0.94-1.84,1.81-2.84,2.63
		c-9.46,7.68-21.48,12.4-33.75,12.04c-17.51-0.14-34.43-10.3-42.94-25.58c-7.81-13.48-8.44-30.46-2.52-44.77
		C251.68,498.91,258.57,490.91,267.09,485.39 M290.43,479.5c-19.07,1.34-37.06,14.64-42.66,33.13c-4.62,12.34-2.94,26.31,2.7,38.02
		c4.47,8.67,11.97,15.52,20.27,20.47c10.05,5.15,21.93,7.11,33.02,4.61c11.99-2.5,23.53-9.26,30.12-19.81
		c7.73-11.28,10.23-25.89,7.21-39.16c-2.25-10.39-8.49-19.5-16.42-26.42C315.01,482.85,302.67,478.77,290.43,479.5z"/>
	<path fill="#4B2524" stroke="#4B2524" stroke-width="0.394" d="M290.43,479.5c12.24-0.73,24.58,3.35,34.24,10.84
		c7.93,6.92,14.17,16.03,16.42,26.42c3.02,13.27,0.52,27.88-7.21,39.16c-6.59,10.55-18.13,17.31-30.12,19.81
		c-11.09,2.5-22.97,0.54-33.02-4.61c-8.3-4.95-15.8-11.8-20.27-20.47c-5.64-11.71-7.32-25.6801-2.7-38.02
		C253.37,494.14,271.36,480.84,290.43,479.5 M286.33,494.42c-11.02,2.49-20.61,10.66-24.62,21.26c-5.91,14.16-0.45,31.8,12.03,40.57
		c7.5,5.43,17.26,7.66,26.36,5.96c10.25-1.82,19.45-8.64,24.23-17.88c7.69-13.74,4.03-32.57-8.2-42.48
		C308.12,494.77,296.71,492.16,286.33,494.42z"/>
	<path fill="#060201" stroke="#060201" stroke-width="0.394" d="M78.66,479.62c-0.34,3.17-0.92,6.46-3.03,8.99
		c-7.8,10.13-15.02,20.74-21.02,32.05C36.66,553.19,25,588.82,16.95,624.98C7.94,666.01,3.8,708.04,3.57,750.02
		c-0.39,46.21,4.04,92.52,13.69,137.74c6.79,31.75,16.3,62.97,29.17,92.8c11.73,27.11,26.46,53.02,44.81,76.21
		c17.41,21.61,38.25,40.73,62.47,54.46c11.71,6.03,24.43,10.88,37.74,11.3101c8.54,0.2,17.62-2.0801,23.77-8.3101
		c4.52-4.14,6.46-10.1,8.91-15.53c1.03,0.8301,2.08,1.67,3.07,2.5701c-2.87,6.11-5.63,12.6-11.06,16.9399
		c-9.59,8.23-23.29,9.1801-35.21,6.73c-23.83-4.6699-44.28-19-62.42-34.49c-22.06-19.2899-40.18-42.7699-54.94-68.0099
		c-18.44-31.62-31.87-65.98-41.71-101.18C8.29,872.81,1.74,822.61,0,772.4v-31.86c0.73-30.49,3.43-60.94,8.54-91.0099
		c6.98-40.32,18.03-80.23,35.97-117.13C53.84,513.62,64.65,495.31,78.66,479.62z"/>
	<path fill="#E5BF3B" stroke="#E5BF3B" stroke-width="0.394" d="M699.66,486.68c9.65-5.26,20.97-6.64,31.77-5.16
		c12.97,1.66,24.58,9.28,32.67,19.35c12.1,14.68,13.97,36.3,6.19,53.44c-1.41,2.8-2.56,6.27-5.77,7.45
		c5.41-8.23,8.95-17.85,9.02-27.78c0.59-15.77-6.9-31.52-19.42-41.11c-10.63-8.37-24.74-12-38.11-10
		c-9.5,1.23-18.34,5.62-25.73,11.6C691.51,490.18,696.2,488.74,699.66,486.68z"/>
	<path fill="#4B2524" stroke="#4B2524" stroke-width="0.394" d="M690.28,494.47c7.39-5.98,16.23-10.37,25.73-11.6
		c13.37-2,27.48,1.63,38.11,10c12.52,9.59,20.01,25.34,19.42,41.11c-0.07,9.93-3.61,19.55-9.02,27.78c-2.05,2.77-4.33,5.37-6.8,7.78
		c-11.81,10.81-28.7599,15.89-44.5,12.44c-11.84-2.21-22.34-9.25-29.8799-18.5c-1.39-1.81-2.66-3.72-3.81-5.68
		c-5.6-10.28-7.9301-22.4-5.79-33.96c1.17-7,4.07-13.58,7.79-19.58C684.1,500.72,687.05,497.43,690.28,494.47 M712.82,499.77
		c-10.59,3.25-19.2,12.08-22.42,22.65c-3.52,10.83-1.05,23.25,6.13,32.04c8.39,10.6,23.34,15.2,36.28,11.38
		c11.2-3.08,20.39-12.31,23.6-23.46c5.03-15.77-3.41-34.67-18.71-41.11c-2.81-1.31-5.95-1.49-8.99-1.53
		c0.86-0.38,1.71-0.78,2.55-1.21C725.12,497.88,718.73,497.71,712.82,499.77z"/>
	<path fill="#FDFDFD" stroke="#FDFDFD" stroke-width="0.394" d="M324.93,488.2c3.98,2.47,7.69,5.76,9.73,10.04
		C331.86,494.5,328.54,491.16,324.93,488.2z"/>
	<path stroke="#000000" stroke-width="0.394" d="M286.33,494.42c10.38-2.26,21.79,0.35,29.8,7.43c12.23,9.91,15.89,28.74,8.2,42.48
		c-4.78,9.24-13.98,16.06-24.23,17.88c-9.1,1.7-18.86-0.53-26.36-5.96c-12.48-8.77-17.94-26.41-12.03-40.57
		C265.72,505.08,275.31,496.91,286.33,494.42 M295.36,503.35c-4.04,1.36-7.41,5.26-7.28,9.66c0.07,4.59,3.79,8.46,8.1,9.59
		c6.54,2.1,15.19-2.19,15.33-9.6C311.64,505.11,302.12,500.59,295.36,503.35z"/>
	<path stroke="#000000" stroke-width="0.394" d="M712.82,499.77c5.91-2.06,12.3-1.89,18.44-1.24c-0.84,0.43-1.69,0.83-2.55,1.21
		c-4.33,1.03-8.61,3.98-9.32,8.67c-1.13,6.14,4.75,11.59,10.64,11.7c5.71,0.62,12.06-3.33,12.65-9.32c0.44-3.88-2.02-7.3-4.98-9.52
		c15.3,6.44,23.74,25.34,18.71,41.11c-3.21,11.15-12.4,20.38-23.6,23.46c-12.94,3.8199-27.89-0.78-36.28-11.38
		c-7.1801-8.79-9.65-21.21-6.13-32.04C693.62,511.85,702.23,503.02,712.82,499.77z"/>
	<path fill="#FDFDFD" stroke="#FDFDFD" stroke-width="0.394" d="M719.39,508.41c0.71-4.69,4.99-7.64,9.32-8.67
		c3.04,0.04,6.18,0.22,8.99,1.53c2.96,2.22,5.42,5.64,4.98,9.52c-0.59,5.99-6.94,9.94-12.65,9.32
		C724.14,520,718.26,514.55,719.39,508.41z"/>
	<path fill="#ABDEEE" stroke="#ABDEEE" stroke-width="0.394" d="M915.91,520.39c-1.36-6.85-1.41-13.92-0.1-20.78
		C916.76,506.47,916.71,513.51,915.91,520.39z"/>
	<path fill="#ECC53C" stroke="#ECC53C" stroke-width="0.394" d="M336.53,501.14c3.22,1.27,4.05,5.03,5.48,7.84
		c3.37,9.11,4.85,19.22,2.73,28.81c-1.18,7.62-4.75,14.61-8.95,20.98c-1.56,2.22-3.17,4.95-6.21,5.09
		c6.69-7.23,11.81-16.08,13.6-25.84C345.8,525.42,343.07,512.13,336.53,501.14z"/>
	<path fill="#FEFEFE" stroke="#FEFEFE" stroke-width="0.394" d="M295.36,503.35c6.76-2.76,16.28,1.76,16.15,9.65
		c-0.14,7.41-8.79,11.7-15.33,9.6c-4.31-1.13-8.03-5-8.1-9.59C287.95,508.61,291.32,504.71,295.36,503.35z"/>
	<path fill="#9DCCDC" stroke="#9DCCDC" stroke-width="0.394" d="M597.32,508.4c0.43-1.51,0.51-3.49,2.17-4.21
		c-2.32,11.71-3.07,23.7-2.29,35.61c-0.02,1.87-0.33,3.72-0.59,5.58c-1.67-5.44-0.88-11.18-1.28-16.77
		C594.82,521.81,596,515.04,597.32,508.4z"/>
	<path fill="#EFC841" stroke="#EFC841" stroke-width="0.394" d="M678.88,505.96c0.69-0.81,1.57-1.38,2.65-1.7
		c-3.72,6-6.6201,12.58-7.79,19.58c-2.14,11.56,0.19,23.68,5.79,33.96c-3.2401-0.96-3.84-4.68-4.95-7.39
		C669.44,535.88,670.93,519.19,678.88,505.96z"/>
	<path fill="#ECC63D" stroke="#ECC63D" stroke-width="0.394" d="M244.98,511.04c0.33-1.35,1.52-2.07,2.55-2.86
		c-5.92,14.31-5.29,31.29,2.52,44.77c8.51,15.28,25.43,25.44,42.94,25.58c12.27,0.36,24.29-4.36,33.75-12.04
		c-1.01,4.14-5.33,5.75-8.7,7.56c-9.96,4.65-21.32,7.71-32.29,5.3c-15.16-2.43-29.4-11.73-36.73-25.36
		c-3.23-5.87-5.98-12.24-6.26-19.02C242.39,526.97,242.17,518.66,244.98,511.04z"/>
	<path fill="#060201" stroke="#060201" stroke-width="0.394" d="M952.32,531.59c12.17,22.3799,21.1,46.4,28.28,70.8
		c13.9901,48.43,20.21,98.85,21.4,149.17v24.88c-1.26,48.55-7.14,97.11-19.36,144.16c-10.27,39.52-24.9,78.14-45.79,113.3101
		c-19.2,32.2-44.13,61.62-75.6,82.39c-12.65,8.6499-26.89,15.23-42.04,17.9299c-9.84,1.63-20.58,1.16-29.32-4.11
		c-4.68-2.7-8.23-6.88-11.18-11.33c0.8-0.65,1.61-1.28,2.42-1.9c3.53,3.77,6.66,8.17,11.36,10.61c8.73,4.84,19.25,4.5,28.8,2.79
		c16.76-3.65,32.04-12.17,45.7401-22.28c26.3-19.28,47.66-44.6801,64.62-72.39c17.94-29.15,31.15-60.99,41.3-93.62
		c11.87-39.03,19.21-79.36,22.9-119.96c4.2-49.04,3.32-98.57-3.55-147.33c-6.51-45.14-17.94-89.95-37.77-131.17
		C952.85,539.78,952.63,535.63,952.32,531.59z"/>
	<path fill="#875F24" stroke="#875F24" stroke-width="0.394" d="M932.42,537.81c1.82,7.56,2.29,15.48,3.44,23.21
		c2.07,19.17,4.2,38.34,5.62,57.58c0.53,7.56,1.64,15.1,1.42,22.7c-7.85-6.88-13.33-16.04-18.01-25.25
		c-3.25-6.82-6.04-13.92-7.64-21.31c-0.75-3.03,0.78-5.9,1.88-8.62C925.84,570.74,929.71,554.32,932.42,537.81z"/>
	<path fill="#EDC840" stroke="#EDC840" stroke-width="0.394" d="M683.34,563.48c7.54,9.25,18.04,16.29,29.8799,18.5
		c15.7401,3.45,32.69-1.63,44.5-12.44c-0.48,1.44-1.03,2.96-2.35,3.86c-12.31,9.71-29.08,13.28-44.31,9.64
		c-10.02-2.06-18.78-8-25.85-15.2C683.93,566.72,683.54,565.08,683.34,563.48z"/>
	<path fill="#886023" stroke="#886023" stroke-width="0.394" d="M87.54,565.84c2.25,5.16,3.59,10.66,5.72,15.8799
		c11.91,31.28,32.16,58.98,56.84,81.42c-16.43,14.35-39.89,19.58-61.06,14.9c-1.2-0.36-2.4-0.82-3.36-1.64
		c-0.91-4.06-0.7-8.27-0.81-12.41C84.58,631.25,85.88,598.53,87.54,565.84z"/>
	<path fill="#B99348" stroke="#B99348" stroke-width="0.394" d="M532.33,579.81c0.51,1.08,1.04,2.17,1.46,3.32
		c1.78,8.01,4.77,15.68,7.73,23.31c1.76,4.77,4.98,9.49,3.92,14.81c-4.15,28.26-11.82,56.04-22.78,82.42
		c-3.6,8.16-7.2,16.45-12.61,23.6c-7.75-7.48-12.76-17.18-17.61-26.66c-11.98-24.82-20.22-51.37-25.65-78.36
		c-0.1-2.58,1.35-4.84,2.31-7.13c5.14-11.03,8.7-22.69,12.47-34.23c3.77,22.07,7.47,44.16,11.27,66.22
		c1.54,9.6,3.32,19.15,5.4,28.65c0.74,2.92,1.49,6.06,3.65,8.31c3.29,3.49,9.62,3.14,12.53-0.68c3.23-4.24,4.07-9.71,5.23-14.78
		C525.07,639.19,528,609.39,532.33,579.81z"/>
	<path fill="#43280B" stroke="#43280B" stroke-width="0.394" d="M533.57,582.04c1.82,1.32,2.27,3.55,2.83,5.59
		c2.24,9.11,6.61,17.49,9.68,26.32c1.39,4.36,1.37,9.19,3.88,13.16c2.82,4.52,5.08,9.37,8.05,13.8
		c-4.64,23.95-11.85,47.41-21.23,69.92c-3.63,4.43-4.8701,10.15-8.13,14.8c-1.76,2.61-3.34,5.34-4.94,8.05
		c-2.31,3.95-5.7401,7.05-8.63,10.56c-3.21,0.72-6.8,1.31-9.68-0.73c-9.76-6.17-16.19-16.19-21.88-25.97
		c-4.03-7.32-7.96-14.75-10.78-22.62c-1.92-5.7-2.15-13.3-8.16-16.4c0.35-5.7-2.34-10.86-3.9-16.18c-2.09-6.78-4.01-13.61-5.68-20.5
		c4.33-6.48,8.09-13.3,10.44-20.77c0.34,0.29,1.01,0.88,1.35,1.18c5.43,26.99,13.67,53.54,25.65,78.36
		c4.85,9.48,9.86,19.18,17.61,26.66c5.41-7.15,9.01-15.44,12.61-23.6c10.96-26.38,18.63-54.16,22.78-82.42
		c1.06-5.32-2.16-10.04-3.92-14.81c-2.96-7.63-5.95-15.3-7.73-23.31L533.57,582.04z"/>
	<path fill="#F3CE47" stroke="#F3CE47" stroke-width="0.394" d="M373.93,607.12c2.06-4.23,5.4-7.59,9.36-10.07
		C380.87,600.96,377.77,604.54,373.93,607.12z"/>
	<path fill="#EAC43E" stroke="#EAC43E" stroke-width="0.394" d="M209.66,598.05c2.37,1.69,4.67,3.5,6.68,5.62
		c13.24,13.81,30.16,24.05,48.55,29.39c34.44,10.43,73.89,2.46,101.46-20.7c2.09-1.71,4.41-3.07,6.74-4.4
		c-4.49,5.62-10.75,9.5099-16.65,13.5c-29.54,19.07-68.16,22.8-100.88,10.0099c-16.04-6.21-30.63-16.11-42.33-28.72
		C211.9,601.29,210.71,599.71,209.66,598.05z"/>
	<path fill="#FDFDFD" stroke="#FDFDFD" stroke-width="0.394" d="M635.6,598.37c5.9301,6.39,12.14,12.52,18.04,18.94
		C647.07,611.56,640.9,605.32,635.6,598.37z"/>
	<path fill="#FDFDFD" stroke="#FDFDFD" stroke-width="0.394" d="M797.39,617.35c2.84-3.42,5.99-6.58,9.6-9.18
		C803.9,611.34,800.74,614.46,797.39,617.35z"/>
	<path fill="#886024" stroke="#886024" stroke-width="0.394" d="M888.47,637.47c6.55-7.71,11.85-16.35,17.58-24.65
		c2.36,5,4.58,10.07,7.11,15c1.82,3.2-0.56,6.63-1.67,9.65c-7.04,16.35-19.58,30.3701-35.53,38.42c-11.37,5.55-24.31,9.64-37.05,7.1
		c3.9301-3.52,8.52-6.19,12.64-9.47C865.19,662.98,877.57,650.82,888.47,637.47z"/>
	<path fill="#EFC941" stroke="#EFC941" stroke-width="0.394" d="M777.27,629.25c5.04-2.71,9.59-6.37,15.15-8.01
		c-36.13,27.92-90.03,29.62-127.87,4.09c6.72,1.67,12.26,6.05,18.72,8.39c12.06,4.48,24.71,7.98,37.67,7.9901
		C740.41,642.77,760.01,638.26,777.27,629.25z"/>
	<path fill="#886023" stroke="#886023" stroke-width="0.394" d="M558.01,640.91c1.2,1.14,2.41,2.32,3.31,3.75
		c8.21,13.07,18.57,24.69,29.92,35.1c3.44,3.23,7.41,5.83,10.78,9.15c-11.21,12.2401-26.63,20.31-42.91,23.29
		c-7.44,1.08-15.05,0.25-22.33-1.37C546.16,688.32,553.37,664.86,558.01,640.91z"/>
	<path fill="#886023" stroke="#886023" stroke-width="0.394" d="M428.08,675.09c10.28-9.94,19.05-21.33,26.92-33.25
		c1.67,6.89,3.59,13.72,5.68,20.5c1.56,5.3199,4.25,10.48,3.9,16.18c-7.41,10.16-15.78,20.01-26.9,26.26
		c-11.39,6.35-24.38,11.23-37.63,9.93c-7.92-0.53-15.69-2.42-23.09-5.23c2.39-1.58,4.95-2.88,7.58-4.01
		C400.66,697.94,415.21,687.33,428.08,675.09z"/>
	<path fill="#886023" stroke="#886023" stroke-width="0.394" d="M925.17,646c4.84,5.09,9.35,10.54,15.01,14.77
		c1.9,1.73,4.96,3.11,4.63,6.17c0.28,9.65-0.09,19.32-0.25,28.98c-0.86,29.77-1.81,59.58-5.27,89.18c-0.68,3.27-0.4,7.6-3.65,9.56
		c-4.78,2.89-10.34,4.04-15.71,5.27c-15.44,3.64-32.07,1.27-46.26-5.63c-19.58-9.67-33.15-28.59-40.17-48.87
		c-5.44-15.38-7.23-31.89-6.26-48.14c9.98,1.87,20.32,3.26,30.41,1.37c22.62-4.27,43.8-16.96,57.28-35.75
		C918.96,657.66,921.96,651.75,925.17,646z"/>
	<path fill="#BBE5F5" stroke="#BBE5F5" stroke-width="0.394" d="M285.76,655.44c6.81-0.46,13.66-0.49,20.47-0.01
		C299.47,656.43,292.52,656.4,285.76,655.44z"/>
	<path fill="#9BC8DA" stroke="#9BC8DA" stroke-width="0.394" d="M716.21,658.86c11.23,0.66,22.52,0.11,33.58-1.94
		c0.88,0.09,2.63,0.26,3.5,0.35c-8.07,2.65-16.67,3.59-25.14,3.24c-6.15-0.18-12.48,1.12-18.4301-1.08
		C711.87,659.16,714.03,658.87,716.21,658.86z"/>
	<path fill="#886023" stroke="#886023" stroke-width="0.394" d="M151.15,682.09c4.11-2.47,7.62-5.78,11.67-8.33
		c9.46,6.78,18.92,13.65,29.2,19.15c6.49,3.21,11.33,8.79,17.46,12.55c5.94,4.04,12.63,6.69,19.16,9.61
		c-8.51,22.83-9.88,48.13-4.58,71.87c0.95,5.12,3.08,9.95,3.97,15.08c-1.41,4.16-4.41,7.54-6.94,11.06
		c-9.56,12.72-23.41,22.02-38.65,26.46c-11.38,3.62-23.73,2.29-35.01-0.99c-16.37-4.88-30.03-16.53-39.21-30.72
		C96.11,789.34,90.63,766.97,90.86,745c-0.04-15.58,3.39-31.15,9.84-45.32c0.79-1.44,1.34-3.18,2.76-4.11
		c5.34-0.78,10.82-0.08,16.14-1.15C130.75,692.26,141.46,687.99,151.15,682.09z"/>
	<path fill="#886023" stroke="#886023" stroke-width="0.394" d="M465.53,702.53c2.33-2.61,4.34-5.55,7.21-7.61
		c2.82,7.87,6.75,15.3,10.78,22.62c5.69,9.78,12.12,19.8,21.88,25.97c2.88,2.04,6.47,1.45,9.68,0.73l0.83-0.17
		c-0.4,15.6,1.01,31.34,5.77,46.27c1.3,5.04,3.87,9.65,5.16,14.68c-0.8701,4.14-3.51,7.62-5.61,11.22
		c-11.67,18.59-31.9,31.38-53.63,34.26c-16.42,0.89-33.26-3.7-46.51-13.57c-12.78-9.17-22.13-22.49-28.19-36.88
		c-9.25-22.22-11.12-47.36-5.51-70.75c9.13,0.8,18.37,2.35,27.49,0.61C434.01,726.25,452.21,716.84,465.53,702.53z"/>
	<path fill="#886023" stroke="#886023" stroke-width="0.394" d="M615.29,697.99c9.89,5.25,19.79,10.61,30.41,14.31
		c5.8,2.17,11.8,3.75,17.75,5.49c-0.93,22.77,2.62,46.14,13.17,66.54c0.99,2.19,2.79,4.51,1.7,7.01
		c-3.83,11.66-9.84,22.74-18.41,31.61c-10.7,11.93-25.71,19.41-41.27,22.59c-12.46,1.78-25.27-0.55-36.8-5.39
		c-16.4301-7.09-29.45-20.66-37.6-36.4301c-12.34-23.29-15.34-51-9.92-76.67c9.14,0.76,18.35,2.17,27.5,0.71
		C582.31,724.14,601.41,713.51,615.29,697.99z"/>
	<path fill="#886023" stroke="#886023" stroke-width="0.394" d="M716.01,723.14c33.04-0.73,65.47-9.89,95.15-24.14
		c-0.5,21.71,2.69,43.9,12.36,63.53c0.82,2.06,2.47,4.25,1.54,6.5699c-4.03,11.51-10.44,22.2401-19.02,30.95
		c-11.2,11.3-26.14,18.74-41.81,21.3c-16.26,1.53-33.02-2.8199-46.47-12.1c-11.16-7.43-19.74-18.2-26.05-29.93
		c-9.22-17.52-13.32-37.6-12.46-57.33c6.24,0.68,12.44,1.96,18.74,1.99C704.01,724.17,709.99,723.2,716.01,723.14z"/>
	<path fill="#060201" stroke="#060201" stroke-width="0.394" d="M314.32,705.67c1.62-0.14,3.23-0.26,4.85-0.4
		c-2.6,2.08-6.11,1.3-9.18,1.47c-6.71-0.27-13.45,0.38-20.14-0.3C298,705.82,306.22,707.02,314.32,705.67z"/>
	<path fill="#231A1C" stroke="#231A1C" stroke-width="0.394" d="M695.65,706.17c9.53-0.1,19.0699,0.03,28.61,0.03
		c-4.97,1.4-10.18,0.76-15.26,0.96C704.56,706.93,699.91,707.76,695.65,706.17z"/>
	<path fill="#886023" stroke="#886023" stroke-width="0.394" d="M352.22,717.22c1.8-0.39,3.83-1.15,5.55-0.04
		c4.64,2.57,9.28,5.13,14.17,7.22c-0.44,5.12-1.86,10.08-2.46,15.18c-2.81,22.04-0.09,44.89,8.46,65.44
		c0.63,1.67,1.4,3.57,0.41,5.29c-10.58,22.48-32.93,38.92-57.55,42.3c-19.68,1.49-39.94-5.55-54.2-19.26
		c-12.31-11.39-20.52-26.64-25.29-42.58c-6.67-23.41-6.28-49.13,2.79-71.85c5.29,0.05,10.57,0.66,15.86,0.7
		c7.77-0.03,15.34,1.96,23.05,2.58C306.12,724.45,329.75,723.32,352.22,717.22z"/>
	<path fill="#886023" stroke="#886023" stroke-width="0.394" d="M836.23,783.85c6.21,6.42,12.15,13.23,19.64,18.23
		c4.01,2.8,8.37,5.03,12.67,7.37c-2.68,25.84,0.87,52.53,11.9901,76.13c2.1,3.67-0.7,7.52-1.9,11
		c-5.32,13.18-14.33,24.77-25.65,33.33c-8.03,5.72-17.09,9.97-26.61,12.48c-9.61,2.77-19.83,1.77-29.47-0.29
		c-19.19-4.44-35.6801-17.47-45.95-34.08c-13.37-21.59-18.71-48.1-15.01-73.17c11.53,2.2,23.52,3.86,35.15,1.32
		c15.2-3.38,29.72-10.3,41.46-20.61C822.65,806.88,830.37,795.75,836.23,783.85z"/>
	<path fill="#886023" stroke="#886023" stroke-width="0.394" d="M678.47,825.46c4.75-6.07,8.1201-13,11.54-19.85
		c4.7,4.42,8.93,9.36,14.14,13.22c4.92,4.06,10.58,7.04,16.06,10.26c-0.86,11.0699-1.97,22.19-0.65,33.29
		c1.65,15.84,5.76,31.59,13.37,45.66c0.73,1.56,1.86,3.27,1.17,5.08c-5.59,18.05-17.24,34.48-33.43,44.49
		c-9.48,5.66-20.06,9.84-31.11,10.92c-14.86,0.5099-30.02-3.29-42.45-11.59c-12.06-7.82-21.38-19.31-27.98-31.98
		c-10.2-20.15-13.72-43.41-10.91-65.76c9.98,2.01,20.2401,3.6,30.4301,2.36C642.21,857.78,664.39,844.85,678.47,825.46z"/>
	<path fill="#886023" stroke="#886023" stroke-width="0.394" d="M918.26,816.34c4.99-0.95,9.9-2.28,14.9-3.2
		c-3.94,19.12-9.96,37.75-15.68,56.4c-3.23,9.84-6.1,19.81-10.02,29.41c-6.65-7.31-11.05-16.39-14.98-25.38
		c-7.25-18.46-10.61-38.74-8.35-58.51C895.36,817.09,906.94,818.52,918.26,816.34z"/>
	<path fill="#886023" stroke="#886023" stroke-width="0.394" d="M221.59,835.63c5.55-4.56,9.77-10.41,14.5-15.74
		c5.71,8.77,11.5,17.64,19.31,24.74c6.65,6.37,14.49,11.27,22.54,15.66c-2.2,17.92-1.9,36.34,2.9,53.85
		c0.91,3.93,2.74,7.66,3.08,11.72c-1.37,3.92-4.24,7.08-6.69,10.37c-9.28,11.97-22.49,20.58-36.89,25.08
		c-12.54,4.43-26.42,3.13-38.93-0.75c-18.27-5.95-33.43-19.63-42.62-36.34c-11.67-20.85-16.18-45.6899-12.84-69.31
		c10.82,1.8,21.9,3.73,32.86,1.8C194.58,853.6,209.52,846.26,221.59,835.63z"/>
	<path fill="#886023" stroke="#886023" stroke-width="0.394" d="M536.38,822.03c5.42,6.43,10.45,13.25,17,18.6299
		c5.86,5.1201,12.5,9.2401,19.42,12.78c-0.63,8.56-1.68,17.13-1.24,25.74c0.74,15.24,3.7,30.5,9.75,44.55
		c0.45,1.48,1.42,3.05,0.96,4.66c-9.95,23.63-33.04,40.81-58.32,44.42c-18.82,1.41-38.16-4.91-52.27-17.49
		c-19.52-17.04-29.73-42.81-31.58-68.26c-0.3-7.72-0.67-15.55,0.87-23.17c11.3,1.88,22.92,3.73,34.31,1.43
		c15.48-3.33,30.3-10.3,42.26-20.76C525.04,838.18,531.1,830.3,536.38,822.03z"/>
	<path fill="#886023" stroke="#886023" stroke-width="0.394" d="M388.3,825.22c6.49,8.88,13.61,17.47,22.65,23.89
		c4.52,3.52,9.64,6.15,14.59,9c-3.26,21.77-1.38,44.36,6.29,65.04c0.77,2.97,3.31,5.96,2.33,9.12
		c-10.46,22.48-32.57,39.1-57.15,42.64c-17.01,1.41-34.56-3.33-48.21-13.67c-16.16-11.81-26.64-29.91-32.13-48.89
		c-4.15-15.02-5.45-30.83-3.42-46.3c10.46,1.74,21.15,3.67,31.75,2.02c15.73-2.94,30.95-9.46,43.24-19.81
		C376.24,841.84,382.78,833.81,388.3,825.22z"/>
	<path fill="#886025" stroke="#886025" stroke-width="0.394" d="M105.17,830.02c4.72,4.21,9.18,8.75,14.45,12.29
		c3.54,2.44,7.37,4.43,10.96,6.79c-2.33,16.48-2.15,33.41,1.78,49.64c0.46,2.02,1.09,4.04,1.16,6.13c-0.28,2.44-2.11,4.3-3.42,6.27
		C119.86,884.76,111.62,857.57,105.17,830.02z"/>
	<path fill="#886023" stroke="#886023" stroke-width="0.394" d="M878.36,927.4c5.53-6.56,9.75-14.04,13.69-21.62
		c2.72,3,5.63,5.91,7.74,9.4c-1.43,6.39-4.98,12.12-7.49,18.15c-7.84,17.49-16.93,34.45-27.48,50.47
		c-9.64,15.18-19.89,29.98-30.59,44.44c-3.88,4.86-7.32,10.09-11.73,14.51c-19.47-23.12-28.63-54.36-25.59-84.33
		c9.27,1.11,18.76,2.5,28.02,0.54C845.56,954.77,865.02,943.82,878.36,927.4z"/>
	<path fill="#886024" stroke="#886024" stroke-width="0.394" d="M136.59,927.98c1.33-1.41,2.7-2.77,4.11-4.08
		c6.52,13.16,14.96,25.6,26.3,35.08c6.78,6,14.74,10.45,22.92,14.24c-0.97,11.51-1.39,23.1201,0.41,34.58
		c0.7,6.52,2.81,12.79,3.45,19.32c-1.94-1.38-3.6-3.1-4.89-5.08C168.02,992.78,150.38,961.18,136.59,927.98z"/>
	<path fill="#886023" stroke="#886023" stroke-width="0.394" d="M745.37,928c3.66,2.88,6.45,6.66,10.03,9.64
		c7.52,6.63,16.0699,12.09,25.41,15.78c0.29,7.51-0.75,15.02-0.07,22.53c0.89,17.74,5.24,35.36,13.05,51.33
		c0.76,1.58,1.26,3.37,0.62,5.11c-5.39,17.88-16.56,34.41-32.46,44.53c-12.45,7.7999-27.24,13.3199-42.14,11.48
		c-19.09-1.4501-37.01-11.35-49.19-25.98c-18.09-21.88-25.6-51.54-22.68-79.54c10.05,0.88,20.27,2.58,30.28,0.38
		c19.64-4.18,38.2401-14.35,51.29-29.75C736.18,945.96,741.34,937.2,745.37,928z"/>
	<path fill="#886023" stroke="#886023" stroke-width="0.394" d="M230.82,979.65c24.2-3.51,46.8-16.89,61.26-36.67
		c3.75,5.23,6.82,10.95,11.18,15.75c9.05,11.06,20.84,19.68,33.88,25.47c-0.26,10.73-1.12,21.51,0.33,32.21
		c1.06,8.6401,2.87,17.21,5.64,25.48c0.42,1.76,1.42,3.75,0.32,5.49c-11.05,19.46-31.38,33.05-53.41,36.52
		c-13.7,1.21-27.82-1.4501-39.93-8.05c-14-7.38-25.03-19.62-32.41-33.5c-10.46-19.5099-14.22-42.2-12.33-64.14
		C213.79,979.21,222.3,980.58,230.82,979.65z"/>
	<path fill="#886023" stroke="#886023" stroke-width="0.394" d="M580.14,960.12c4.5-4.78,8.1-10.27,11.92-15.58
		c3.38,3.75,6.3,7.89,9.75,11.59c8.1,8.57,17.74,15.75,28.55,20.52c2.79,0.83,1.6,4.19,1.72,6.33
		c-1.34,15.92,0.04,32.07,4.46,47.4401c1.37,5.7899,4.09,11.12,5.87,16.76c-0.3,3.59-2.78,6.6599-4.4,9.7999
		c-9.58,16.1901-25.43,28.29-43.44,33.62c-11.32,3.9401-23.71,2.85-35.14-0.0499c-18.62-5.1001-34.43-18.27-44.23-34.74
		c-12.4-20.4301-16.98-45.0101-14.88-68.67c11.14,1.28,22.68,3.07,33.66-0.14C551.5,982.65,567.9,973.44,580.14,960.12z"/>
	<path fill="#886023" stroke="#886023" stroke-width="0.394" d="M419.83,973.8c9.72-6.94,17.42-16.2,24.11-26
		c7.17,9.8,15.35,18.97,25.48,25.8c4.81,3.46,10.21,5.95,15.5,8.58c-2.4,21.8-0.03,44.3,8.33,64.68c0.51,1.72,1.77,3.6,0.92,5.4301
		c-10.28,22.6699-32.57,39.1599-57.14,42.83c-17.11,1.5-34.62-3.58-48.41-13.79c-13.83-10.34-23.75-25.2699-29.51-41.4299
		c-5.7-16.14-8.1-33.62-6-50.64c9.59,1.45,19.45,2.74,29.09,0.94C395.66,987.32,408.73,982.02,419.83,973.8z"/>
	<path fill="#A4D3D6" stroke="#A4D3D6" stroke-width="0.394" d="M800.75,1057.7c1.95-3.2899,3.11-7.0199,5.37-10.13
		c-0.59,4.12-1.8,8.12-2.59,12.2201c-0.3101,2.48-2.55,3.9099-4.16,5.5699c-3.36,2.99-6.17,6.61-9.92,9.16
		C793.06,1068.8101,797.68,1063.77,800.75,1057.7z"/>
	<path fill="#47BEE9" stroke="#47BEE9" stroke-width="0.394" d="M336.55,1079.5601c5.9-4.6901,10.74-10.5,15.57-16.2301
		c4.99,7.54,10.26,14.89,16.34,21.62c-4.55,11.05-7.88,22.6801-9.01,34.6101c-1.08,8.25-1.19,16.6399-0.06,24.8999
		c0.42,6.1801,2.16,12.15,3.03,18.28c-15.53-5.58-30.27-13.3099-44.49-21.66c-18.11-11.2999-36.25-22.6899-52.94-36.0499
		c-3.91-3.14-7.87-6.25-11.29-9.9401c12.62,3.73,25.91,6.1901,39.09,4.4701C308.72,1096.6801,324.1,1090,336.55,1079.5601z"/>
	<path fill="#9AD5DD" stroke="#9AD5DD" stroke-width="0.394" d="M638.25,1082.25c5.39-5.3,9.72-11.52,13.83-17.83
		c2.33,2.7999,4.56,5.6899,6.71,8.64c-4.27,19.0199-5.68,38.98-2.07,58.23c2.23,10.3999,6.17,20.39,11.25,29.73
		c-9.09,4.97-19.11,7.9-28.98,10.91c-31.7,8.6599-64.11,14.74-96.68,18.8999c-3.58-3.0599-5.07-7.8199-7.28-11.84
		c-5.78-12.03-10.17-25.11-10.71-38.51c1.05-7.9299,1.11-16.02-0.03-23.9399c0.01-7.88,2.01-15.6901,4.32-23.1901
		c16.93,11.51,37.76,17.2101,58.18,15.26C606.09,1105.37,624.57,1096.36,638.25,1082.25z"/>
	<path fill="#32B2CF" stroke="#32B2CF" stroke-width="0.394" d="M473.94,1097.9301c12.34-7.3401,22.15-18.17,30.04-30.02
		c3.75,4.7899,7.33,9.72,11.51,14.1699c-7.34,21.39-9.89,44.5-6.29,66.89c1.43,10.3401,4.62,20.3401,8.33,30.05
		c-0.71,3.33-2.6801,6.24-4.2401,9.23c-0.95,1.27-1.52,3.45-3.48,3.3199c-7.3,0.0901-14.65,0.1101-21.92-0.62
		c5.89-0.3999,11.81,0.0701,17.7-0.45c-13.25-0.35-26.48-1.72-39.75-1.49c-22.31-1.6901-44.61-4.8101-66.26-10.55
		c-5.44-1.6-10.97-3.21-15.88-6.1c-4-7.48-5.18-16-6.8-24.22c-1.88-10.04-0.42-20.26-1.11-30.38c0.48-7.52,2.84-14.8,5.36-21.85
		c4.84,2.39,9.28,5.5299,14.28,7.64c8.51,3.8199,17.64,6.0399,26.87,7.26c-0.31,0.2899-0.94,0.85-1.26,1.1299
		c6.67,0.16,13.6,1.16,20.06-1.0399C452.49,1107.86,463.98,1104.4301,473.94,1097.9301z"/>
	<path fill="#92D2DC" stroke="#92D2DC" stroke-width="0.394" d="M776.18,1086.22c1.37-1.0699,2.81-2.0399,4.36-2.8199
		c-4.35,5.62-10.04,10.03-15.06,15.0399c-15,13.77-32.13,24.9601-49.44,35.5801c-11.37,6.53-22.56,13.51-34.58,18.8099
		c-5.4-10.1899-9.39-21.2799-10.53-32.7999c-0.95-11.3401-0.47-22.77,1.3-34c14.83,11.2899,33.09,18.11,51.8,18.4199
		c10.2599,0.75,20.31-2.12,29.8199-5.6799C761.8,1095.6,769.42,1091.49,776.18,1086.22z"/>
	<path fill="#5B9FB2" stroke="#5B9FB2" stroke-width="0.394" d="M421.04,1111.9399c0.32-0.2799,0.95-0.84,1.26-1.1299
		c6.26,0.0299,12.53,0.3799,18.8,0.09C434.64,1113.1,427.71,1112.1,421.04,1111.9399z"/>
	<path fill="#BEE2E7" stroke="#BEE2E7" stroke-width="0.394" d="M524.29,1116.54c1.14,7.9199,1.08,16.01,0.03,23.9399
		C523.16,1132.5699,523.13,1124.45,524.29,1116.54z"/>
	<path fill="#58A3B7" stroke="#58A3B7" stroke-width="0.394" d="M377.37,1156.59c-2.93-12.65-4.25-26.0399-1.58-38.83
		c0.69,10.12-0.77,20.34,1.11,30.38c1.62,8.22,2.8,16.74,6.8,24.22c-1.17-0.8199-2.73-1.37-3.2-2.84
		C378.86,1165.37,378.36,1160.9,377.37,1156.59z"/>
	<path fill="#1F2C3A" stroke="#1F2C3A" stroke-width="0.394" d="M359.39,1144.46c-1.13-8.26-1.02-16.6499,0.06-24.8999
		c0.84,3.08,0.95,6.2999,0.7,9.48C359.71,1134.17,360.73,1139.4,359.39,1144.46z"/>
	<path fill="#D6B54C" stroke="#D6B54C" stroke-width="0.394" d="M255.08,1126.61c5.94,3.6801,11.03,8.5601,16.8,12.5
		c14.55,10.78,29.98,20.29,45.74,29.1801c1.25,14.11,3.7,28.1,7.34,41.7999c0.37,2,1.46,4.24,0.27,6.1901
		c-5.13,10.4299-14.3,18.87-25.39,22.5699c-6.12,1.09-12.65,1.37-18.43-1.26c-5.48-2.09-9.66-6.3099-13.64-10.4399
		c-3.71-5.9601-7.04-12.22-8.91-19.01c-3.48-11.4-3.98-23.38-4.97-35.1801C252.91,1157.52,253.23,1141.97,255.08,1126.61z"/>
	<path fill="#D6B36B" stroke="#D6B36B" stroke-width="0.394" d="M741.77,1146.6801c3.87-3.4301,8.2-6.3,12.68-8.8601
		c0.43,5.3301,0.97,10.67,1,16.02c-0.28,1.48-0.59,2.9601-0.92,4.4401c-1.1201-5.75-0.35-11.66-1.48-17.4
		C749.38,1142.97,745.81,1145.33,741.77,1146.6801z"/>
	<path fill="#3A1601" stroke="#3A1601" stroke-width="0.394" d="M251.94,1155c0.22-4.75-0.82-9.71,0.82-14.28
		c0.49,5.0801-0.14,10.1801-0.09,15.28c-0.1,5.4301,0.56,10.86,0.06,16.29C251.16,1166.66,252.25,1160.75,251.94,1155z"/>
	<path fill="#D6B54C" stroke="#D6B54C" stroke-width="0.394" d="M741.77,1146.6801c4.04-1.3501,7.61-3.7101,11.28-5.8
		c1.13,5.74,0.36,11.65,1.48,17.4c0.33-1.48,0.64-2.9601,0.92-4.4401c1.13,11.1801,0.44,22.4701-0.28,33.66
		c-1,10.09-1.64,20.3199-4.55,30.09c-2.45,8.5701-6.38,16.92-12.7,23.3301c-5.63,5.73-13.61,9.36-21.72,8.85
		c-14.69-0.71-27.31-11.88-32.78-25.03c1.07-6.77,3.34-13.3099,4.48-20.08c2.19-9.9601,2.93-20.15,4.3-30.24
		c14.36-7.01,28.39-14.7201,41.86-23.3201C736.54,1149.49,738.96,1147.7,741.77,1146.6801z"/>
	<path fill="#2A0C0A" stroke="#2A0C0A" stroke-width="0.394" d="M763.92,1180.34c-1.45-8.7999-1.47-17.9099,0.02-26.6899
		C764.5,1162.53,764.46,1171.45,763.92,1180.34z"/>
	<path fill="#D6B54C" stroke="#D6B54C" stroke-width="0.394" d="M326.69,1172.99c18.75,9.5601,38.26,17.63,58.29,24.11
		c7.6,2.54,15.39,4.39,23.02,6.8101c-0.43-0.05-1.3-0.16-1.73-0.2101c1.44,1.53,3.74,2.8501,3.59,5.27
		c0.16,4.8401-0.14,9.73,0.78,14.53c0.28,5.04-1.91,9.86-3.74,14.47c-3.47,8.17-9.58,15.01-16.99,19.85
		c-7.58,3.63-16.55,5.03-24.53,1.8101c-9.6-3.67-16.27-11.98-21.5-20.46c-3.54-7.2301-6.54-14.7301-8.57-22.51
		C331.51,1202.3101,327.93,1187.8101,326.69,1172.99z"/>
	<path fill="#D6B54C" stroke="#D6B54C" stroke-width="0.394" d="M600.21,1206.3101c28.57-6.1901,56.35-15.7101,83.06-27.5601
		l-0.11,1c-1.77,17.85-5.72,35.4301-10.81,52.62c-3.68,11.4-9.0099,22.78-18.06,30.9301c-6.37,5.83-15.17,9.34-23.86,8.13
		c-5.7-0.6001-10.81-3.4301-15.55-6.4501C598.24,1250.89,594.18,1226.51,600.21,1206.3101z"/>
	<path fill="#43280B" stroke="#43280B" stroke-width="0.394" d="M683.16,1179.75c0.97,1.5601,1.26,3.41,1.01,5.25
		c-2.21,18.59-6.61,36.89-12.63,54.6c-4.36,10.11-9.85,20.38-18.92,27.03c-3.92,2.66-8.19,4.96-12.77,6.24
		c-8.53,1.4301-17.84-0.5-24.58-6.0699c-0.31-0.5801-0.94-1.75-1.25-2.3401l0.86,0.52c4.74,3.02,9.85,5.85,15.55,6.4501
		c8.69,1.21,17.49-2.3,23.86-8.13c9.05-8.15,14.38-19.53,18.06-30.9301C677.44,1215.1801,681.39,1197.6,683.16,1179.75z"/>
	<path fill="#559DAF" stroke="#559DAF" stroke-width="0.394" d="M465.84,1189.01c13.27-0.23,26.5,1.14,39.75,1.49
		c-5.89,0.52-11.81,0.05-17.7,0.45C480.54,1190.5,473.09,1190.37,465.84,1189.01z"/>
	<path fill="#E0BF71" stroke="#E0BF71" stroke-width="0.394" d="M406.27,1203.7c0.43,0.05,1.3,0.16,1.73,0.2101
		c0.7,0.08,2.09,0.24,2.78,0.3199c0.89,6.37,1.26,12.9301-0.14,19.27c-0.92-4.8-0.62-9.6899-0.78-14.53
		C410.01,1206.55,407.71,1205.23,406.27,1203.7z"/>
	<path fill="#D6B54C" stroke="#D6B54C" stroke-width="0.394" d="M419.87,1206.71c9.72,1.76,19.38,3.92,29.2,5.14
		c1.03,0.3,2.47,0.05,3.26,0.91c0.22,0.27,0.65,0.8199,0.87,1.09c5.37,1.53,11.1,0.8,16.53,2.1901
		c0.61,8.9399-0.97,18.22-5.84,25.88c-2.83,4.99-7.62,8.2999-11.55,12.35c-3.43,2.4399-8.03,2.7-12.11,2.41
		c-10.06-1.0801-18.05-8.5-23.33-16.66c-1.5-1.73-0.01-3.96,0.33-5.8301C420.22,1225.35,420.25,1215.92,419.87,1206.71z"/>
	<path fill="#D6B54C" stroke="#D6B54C" stroke-width="0.394" d="M543.44,1214.6801c15.96-1.1001,31.8-3.4901,47.52-6.4
		c-0.4,2.59-0.83,5.2-1.73,7.6799c-2.33,5.73-1.25,12.02-1.07,18.02c0.29-0.3199,0.8701-0.96,1.17-1.27
		c1,4.87,2.1,9.7201,3.45,14.52c0.8,1.85-0.77,3.41-1.6801,4.89c-4.69,6.4-10.96,12.1801-18.85,14.15
		c-8.84,2.46-18.46-1.47-24.37-8.1801c-10.17-11.0499-11.91-27.5699-8.31-41.65C539.8,1214.51,542.09,1214.99,543.44,1214.6801z"/>
	<path fill="#D3B068" stroke="#D3B068" stroke-width="0.394" d="M453.2,1213.85c-0.22-0.27-0.65-0.8199-0.87-1.09
		c6.26,0.02,12.41,1.41,18.67,1.63c1.31,10.5599-0.8,21.77-7.13,30.47c-2.99,3.99-6.69,7.77-11.53,9.41
		c3.93-4.05,8.72-7.36,11.55-12.35c4.87-7.66,6.45-16.9401,5.84-25.88C464.3,1214.65,458.57,1215.38,453.2,1213.85z"/>
	<path fill="#E5C475" stroke="#E5C475" stroke-width="0.394" d="M588.16,1233.98c-0.18-6-1.2599-12.29,1.07-18.02
		c-0.07,5.5801-0.02,11.16,0.1,16.75C589.03,1233.02,588.45,1233.66,588.16,1233.98z"/>
	<path fill="#442008" stroke="#442008" stroke-width="0.394" d="M266.94,1226.54l0.83,0.61c3.98,4.13,8.16,8.35,13.64,10.4399
		c5.78,2.63,12.31,2.35,18.43,1.26c0.57,0.02,1.73,0.05,2.31,0.0701c-8.28,4.5599-18.82,2.24-26.46-2.62
		C272.17,1233.73,267.97,1231.0699,266.94,1226.54z"/>
	<path fill="#43280B" stroke="#43280B" stroke-width="0.394" d="M343.01,1238.58l0.87,0.5901c5.23,8.48,11.9,16.7899,21.5,20.46
		c7.98,3.22,16.95,1.8199,24.53-1.8101l1.11-0.3899c-0.84,2.7799-4.09,3.1899-6.42,4.1699c-8.69,3.15-18.81,1.49-26.23-3.95
		c-3.46-2.48-7.16-4.86-9.58-8.4501C346.52,1245.87,343.7,1242.67,343.01,1238.58z"/>
</g>
</svg>
